<?xml version="1.0" standalone="no"?>
<!DOCTYPE svg PUBLIC "-//W3C//DTD SVG 1.1//EN" "http://www.w3.org/Graphics/SVG/1.1/DTD/svg11.dtd" >
<svg xmlns="http://www.w3.org/2000/svg" xmlns:xlink="http://www.w3.org/1999/xlink" version="1.1">
<metadata>
Created by FontForge 20200314 at Tue Feb  7 04:08:06 2023
 By User Azfonts
\(c\) 2023 The Differentialtype. All Rights Reserved.
</metadata>
<defs>
<font id="Laraboyok-Regular" horiz-adv-x="606" >
  <font-face 
    font-family="Laraboyok"
    font-weight="400"
    font-stretch="normal"
    units-per-em="1000"
    panose-1="0 0 0 0 0 0 0 0 0 0"
    ascent="800"
    descent="-200"
    x-height="485"
    cap-height="726"
    bbox="-527 -281 1497 966"
    underline-thickness="50"
    underline-position="-125"
    stemh="29"
    stemv="104"
    unicode-range="U+000A-FB06"
  />
<missing-glyph horiz-adv-x="527" 
d="M50 700h427v-700h-427v700zM78 680l185 -309l186 309h-371zM276 350l181 -303v605zM251 350l-180 300v-601zM264 329l-185 -308h370z" />
    <glyph glyph-name="fi.liga" unicode="fi" horiz-adv-x="578" 
d="M8 435v31h70v204c0 7 -4 12 -12 12c-11 0 -27 -6 -38 -9l-5 20c31 8 109 35 137 35c11 0 22 -5 22 -18v-188c8 4 16 7 24 12v80c0 100 123 125 202 125c17 0 120 -4 120 -30c0 -38 -268 -168 -302 -185v-58h264v-421c0 -6 2 -16 10 -16c12 0 13 23 13 31v406h21v-406
c0 -38 -26 -60 -63 -60c-52 0 -85 38 -85 88v338c0 3 0 9 -5 9h-155v-375c0 -38 -26 -60 -63 -60c-52 0 -85 38 -85 88v347h-70zM226 544c22 10 198 99 198 123c0 26 -77 43 -96 43c-57 0 -102 -37 -102 -96v-70zM182 466h24v48l-24 -12v-36zM182 435v-390
c0 -6 2 -16 10 -16c13 0 14 23 14 31v375h-24z" />
    <glyph glyph-name="fl.liga" unicode="fl" horiz-adv-x="616" 
d="M8 424v32h70v214c0 7 -4 12 -12 12c-11 0 -27 -6 -38 -9l-5 20c31 8 109 35 137 35c11 0 22 -5 22 -18v-188c8 4 16 7 24 12v80c0 100 123 125 202 125c30 0 89 -4 114 -20c5 -1 6 -6 6 -10v-664c0 -6 2 -16 10 -16c13 0 14 23 14 31v666h21v-666c0 -38 -26 -60 -64 -60
c-52 0 -85 38 -85 88v540c-64 -37 -131 -71 -198 -104v-68h160v-32h-160v-364c0 -38 -26 -60 -63 -60c-52 0 -85 38 -85 88v336h-70zM226 544c22 10 198 99 198 123c0 26 -77 43 -96 43c-57 0 -102 -37 -102 -96v-70zM182 456h24v58l-24 -12v-46zM182 424v-379
c0 -6 2 -16 10 -16c13 0 14 23 14 31v364h-24z" />
    <glyph glyph-name=".notdef" horiz-adv-x="527" 
d="M50 700h427v-700h-427v700zM78 680l185 -309l186 309h-371zM276 350l181 -303v605zM251 350l-180 300v-601zM264 329l-185 -308h370z" />
    <glyph glyph-name="uni0000" horiz-adv-x="0" 
 />
    <glyph glyph-name="uni0000" horiz-adv-x="0" 
 />
    <glyph glyph-name="uni000D" unicode="&#xd;" horiz-adv-x="0" 
 />
    <glyph glyph-name="space" unicode=" " horiz-adv-x="242" 
 />
    <glyph glyph-name="uni000A" unicode="&#xa;" horiz-adv-x="0" 
 />
    <glyph glyph-name="exclam" unicode="!" horiz-adv-x="186" 
d="M83 180l-42 420c-1 6 -1 13 -1 19c0 33 13 84 54 84s51 -50 51 -82c0 -7 0 -14 -1 -21l-40 -420h-21zM41 42c0 28 24 52 52 52s52 -24 52 -52s-24 -52 -52 -52c-29 0 -52 23 -52 52z" />
    <glyph glyph-name="quotedbl" unicode="&#x22;" horiz-adv-x="368" 
d="M298 420h-20c-15 72 -42 148 -42 222c0 37 5 86 53 86c46 0 51 -50 51 -85c0 -75 -26 -150 -42 -223zM90 420h-20c-15 72 -42 148 -42 222c0 37 5 86 53 86c46 0 51 -50 51 -85c0 -75 -26 -150 -42 -223z" />
    <glyph glyph-name="numbersign" unicode="#" horiz-adv-x="536" 
d="M70 -8l47 235h-90v31h96l34 177h-130v31h136l52 262h33l-52 -262h175l52 262h32l-52 -262h108v-31h-114l-34 -177h148v-31h-154l-47 -235h-32l46 235h-175l-47 -235h-32zM155 258h176l34 177h-176z" />
    <glyph glyph-name="dollar" unicode="$" horiz-adv-x="557" 
d="M290 -76h-31v66c-91 3 -190 43 -235 128l73 40c21 -75 84 -131 162 -138l-1 417c-48 27 -102 49 -146 83c-22 -9 -44 -21 -67 -30l-9 19c19 9 40 16 60 26c-17 16 -28 39 -28 63c0 87 123 116 190 125v35h31v-32c23 2 45 3 68 3c19 0 146 -1 146 -32
c0 -26 -191 -93 -214 -102v-105c122 -53 237 -123 237 -272c0 -140 -102 -222 -236 -228v-66zM289 690l1 -73c11 4 109 41 109 51c0 14 -97 22 -110 22zM258 603v87c-43 -2 -160 -10 -160 -73c0 -28 25 -47 47 -61c37 16 76 32 113 47zM289 418l1 -398c94 8 132 89 132 175
c0 101 -50 170 -133 223z" />
    <glyph glyph-name="percent" unicode="%" horiz-adv-x="851" 
d="M180 -8l468 736h32l-468 -736h-32zM164 331c-104 0 -139 108 -139 194c0 88 36 203 143 203c104 0 137 -113 137 -199c0 -87 -36 -198 -141 -198zM165 346c74 0 85 129 85 180s-13 186 -87 186c-72 0 -84 -132 -84 -182c0 -51 12 -184 86 -184zM684 -13
c-104 0 -139 109 -139 195c0 87 36 203 142 203c104 0 138 -114 138 -199c0 -87 -36 -199 -141 -199zM685 3c74 0 85 129 85 180s-13 186 -87 186c-73 0 -84 -132 -84 -182c0 -51 11 -184 86 -184z" />
    <glyph glyph-name="ampersand" unicode="&#x26;" horiz-adv-x="838" 
d="M537 495v21c74 0 84 -106 84 -159c0 -88 -25 -176 -79 -245c36 -21 78 -37 122 -37c41 0 88 16 106 56l17 -11c-31 -79 -101 -130 -186 -130c-52 0 -102 18 -144 46c-54 -32 -118 -46 -180 -46c-118 0 -254 58 -254 194c0 105 90 182 167 239c-16 46 -39 118 -39 167
c0 98 93 139 179 139c62 0 153 -25 153 -102c0 -82 -126 -149 -187 -184c42 -100 105 -208 185 -283c72 56 111 142 111 233c0 36 -6 102 -55 102zM241 629c0 -38 24 -108 38 -144c46 31 141 92 141 155c0 46 -44 68 -86 68c-48 0 -93 -27 -93 -79zM266 94c37 0 73 5 107 14
c-73 79 -129 180 -170 280c-56 -35 -141 -93 -141 -167c0 -100 127 -127 204 -127z" />
    <glyph glyph-name="quotesingle" unicode="'" horiz-adv-x="160" 
d="M90 420h-20c-15 72 -42 148 -42 222c0 37 5 86 53 86c46 0 51 -50 51 -85c0 -75 -26 -150 -42 -223z" />
    <glyph glyph-name="parenleft" unicode="(" horiz-adv-x="365" 
d="M315 -198v-20c-179 83 -280 277 -280 470c0 194 103 397 280 488v-16c-137 -84 -176 -328 -176 -473c0 -139 35 -378 176 -449z" />
    <glyph glyph-name="parenright" unicode=")" horiz-adv-x="365" 
d="M50 -218v20c140 71 176 311 176 450c0 145 -39 388 -176 472v16c177 -91 280 -294 280 -488c0 -193 -101 -387 -280 -470z" />
    <glyph glyph-name="asterisk" unicode="*" horiz-adv-x="432" 
d="M181 368c0 44 21 87 24 131c-40 -27 -95 -104 -144 -104c-16 0 -30 17 -30 32c0 51 126 72 162 91c-36 18 -165 36 -165 87c0 18 16 31 33 31c50 0 103 -72 144 -99c-3 44 -24 87 -24 132c0 25 4 59 36 59s35 -34 35 -58c0 -44 -21 -87 -24 -131c39 27 93 102 142 102
c17 0 31 -15 31 -33c0 -50 -126 -70 -163 -89c37 -17 164 -37 164 -87c0 -18 -13 -33 -30 -33c-50 0 -104 73 -144 100c3 -44 24 -87 24 -132c0 -24 -3 -58 -35 -58s-36 34 -36 59z" />
    <glyph glyph-name="plus" unicode="+" horiz-adv-x="502" 
d="M9 331v31h226v227h31v-227h227v-31h-227v-226h-31v226h-226z" />
    <glyph glyph-name="comma" unicode="," horiz-adv-x="179" 
d="M48 -167v20c42 15 69 51 69 96c0 18 -4 35 -15 51c-10 -7 -21 -10 -34 -10c-29 0 -51 19 -51 50c0 35 30 54 62 54c59 0 84 -55 84 -107c0 -71 -44 -135 -115 -154z" />
    <glyph glyph-name="hyphen" unicode="-" horiz-adv-x="321" 
d="M302 198h-283v104h283v-104z" />
    <glyph glyph-name="period" unicode="." horiz-adv-x="138" 
d="M69 -10c-29 0 -52 23 -52 52c0 28 23 52 52 52s52 -24 52 -52c0 -29 -23 -52 -52 -52z" />
    <glyph glyph-name="slash" unicode="/" horiz-adv-x="407" 
d="M50 -8l275 736h32l-275 -736h-32z" />
    <glyph glyph-name="zero" unicode="0" horiz-adv-x="605" 
d="M302 -23c-196 0 -265 204 -265 368c0 166 71 383 270 383c196 0 260 -213 260 -374c0 -166 -65 -377 -265 -377zM304 5c139 0 159 245 159 340c0 97 -22 354 -163 354c-138 0 -159 -249 -159 -343c0 -97 22 -351 163 -351z" />
    <glyph glyph-name="one" unicode="1" horiz-adv-x="293" 
d="M187 0h-104v628c0 12 -4 23 -17 23c-9 0 -22 -5 -31 -8l-7 18l114 65c12 6 34 10 46 10c35 0 54 -28 54 -60v-675h-21v675c0 21 -11 40 -34 40v-716z" />
    <glyph glyph-name="two" unicode="2" horiz-adv-x="577" 
d="M495 1h-453v21h453c7 0 31 1 31 13c0 9 -10 11 -16 11h-457c-14 0 -17 10 -17 22c0 4 0 8 1 12c63 274 435 257 435 422c0 101 -128 133 -208 133c-78 0 -197 -29 -197 -126c0 -34 18 -71 55 -71v-21c-63 0 -84 70 -84 122c0 130 104 200 226 200c115 0 236 -67 236 -195
c0 -215 -367 -295 -367 -369c0 -20 25 -25 39 -25h295c51 0 88 -33 88 -85c0 -38 -22 -64 -60 -64z" />
    <glyph glyph-name="three" unicode="3" horiz-adv-x="514" 
d="M349 0h-317v21h317c68 0 104 61 104 123c0 81 -57 94 -125 94c-35 0 -69 -3 -103 -3c-60 0 -115 9 -115 81c0 162 279 125 279 226c0 74 -124 93 -178 93c-50 0 -154 -13 -154 -82c0 -32 24 -53 55 -53v-21c-57 0 -84 53 -84 104c0 107 95 156 190 156
c96 0 199 -52 199 -160c0 -146 -211 -164 -211 -230c0 -16 14 -19 28 -19c41 0 82 13 124 13c96 0 124 -63 124 -152c0 -84 -31 -191 -133 -191z" />
    <glyph glyph-name="four" unicode="4" horiz-adv-x="539" 
d="M320 257v-96c-47 0 -243 -6 -277 33c-12 12 -12 32 -12 48c0 251 93 483 376 483c10 0 37 0 37 -16v-676c0 -6 2 -15 10 -15c13 0 14 24 14 31v671h21v-671c0 -38 -26 -60 -64 -60c-52 0 -85 37 -85 88v513c0 34 -25 39 -55 39c-166 0 -232 -156 -232 -299v-24
c0 -11 0 -23 6 -31c16 -23 107 -18 132 -18h129z" />
    <glyph glyph-name="five" unicode="5" horiz-adv-x="474" 
d="M59 2l-42 24c0 23 5 96 41 96c38 0 36 -104 131 -104c96 0 145 93 145 180c0 156 -124 219 -263 224l90 225c27 69 228 78 289 78l-50 -96c-23 0 -223 -1 -231 -22l-34 -89c169 -6 303 -105 303 -284c0 -126 -79 -244 -214 -244c-125 0 -133 110 -162 110
c-14 0 -15 -25 -15 -32c0 -22 5 -45 12 -66z" />
    <glyph glyph-name="six" unicode="6" horiz-adv-x="532" 
d="M232 66h-21c-27 66 -45 139 -45 211c0 96 38 206 152 206c127 0 184 -124 184 -235c0 -144 -85 -258 -236 -258c-170 0 -232 141 -232 291c0 265 180 449 446 449v-21c-237 -6 -342 -225 -342 -436c0 -81 20 -255 131 -255c104 0 129 146 129 224c0 65 -21 211 -110 211
c-81 0 -103 -119 -103 -179c0 -72 19 -143 47 -208z" />
    <glyph glyph-name="seven" unicode="7" horiz-adv-x="520" 
d="M178 0l222 623h-180c-39 0 -115 -9 -131 -52l-19 -51l-20 6c30 88 53 202 170 202h250l-260 -728h-32z" />
    <glyph glyph-name="eight" unicode="8" horiz-adv-x="494" 
d="M32 150c0 100 95 159 164 214c-56 58 -129 137 -129 224c0 99 88 141 176 141c79 0 188 -39 188 -134c0 -78 -93 -148 -146 -195c66 -65 177 -157 177 -257c0 -114 -119 -153 -214 -153c-99 0 -216 42 -216 160zM158 608c0 -73 56 -136 105 -186c46 47 74 102 74 169
c0 57 -22 117 -89 117c-58 0 -90 -44 -90 -100zM358 117c0 85 -82 165 -137 222c-50 -54 -85 -116 -85 -191c0 -73 34 -137 114 -137c64 0 108 42 108 106z" />
    <glyph glyph-name="nine" unicode="9" horiz-adv-x="535" 
d="M55 -10v21c237 6 342 225 342 436c0 80 -20 255 -131 255c-104 0 -129 -147 -129 -225c0 -64 21 -211 110 -211c81 0 103 120 103 180c0 72 -18 143 -47 208h21c27 -66 45 -139 45 -211c0 -97 -37 -206 -152 -206c-127 0 -184 124 -184 235c0 144 85 258 236 258
c170 0 232 -141 232 -291c0 -265 -180 -449 -446 -449z" />
    <glyph glyph-name="colon" unicode=":" horiz-adv-x="154" 
d="M25 458c0 28 24 52 52 52s52 -24 52 -52s-24 -52 -52 -52c-29 0 -52 23 -52 52zM25 42c0 28 24 52 52 52s52 -24 52 -52s-24 -52 -52 -52c-29 0 -52 23 -52 52z" />
    <glyph glyph-name="semicolon" unicode=";" horiz-adv-x="191" 
d="M27 458c0 28 24 52 52 52s52 -24 52 -52s-24 -52 -52 -52c-29 0 -52 23 -52 52zM56 -167v20c42 15 69 51 69 96c0 18 -4 35 -15 51c-10 -7 -21 -10 -34 -10c-29 0 -51 19 -51 50c0 35 30 54 62 54c59 0 84 -55 84 -107c0 -71 -44 -135 -115 -154z" />
    <glyph glyph-name="less" unicode="&#x3c;" horiz-adv-x="579" 
d="M562 61l-552 250v34l552 250v-34l-513 -232l513 -233v-35z" />
    <glyph glyph-name="equal" unicode="=" horiz-adv-x="514" 
d="M15 404v31h484v-31h-484zM15 248v31h484v-31h-484z" />
    <glyph glyph-name="greater" unicode="&#x3e;" horiz-adv-x="579" 
d="M568 311l-552 -250v35l514 233l-514 232v34l552 -250v-34z" />
    <glyph glyph-name="question" unicode="?" horiz-adv-x="507" 
d="M106 438v-21c-63 0 -84 70 -84 122c0 130 104 200 226 200c127 0 236 -75 236 -211c0 -200 -246 -192 -246 -264c0 -30 39 -27 60 -27c-23 -19 -116 -104 -140 -104c-12 0 -16 12 -16 22c0 4 0 8 1 13c59 271 313 169 313 324c0 108 -120 143 -208 143
c-78 0 -197 -29 -197 -126c0 -34 18 -71 55 -71zM224 -10c-29 0 -52 23 -52 52c0 28 24 52 52 52s52 -24 52 -52s-24 -52 -52 -52z" />
    <glyph glyph-name="at" unicode="@" horiz-adv-x="958" 
d="M685 271l-20 -226c-1 -15 10 -16 22 -16c83 0 150 96 176 165c18 46 28 104 28 154c0 225 -170 349 -383 349c-282 0 -442 -205 -442 -475c0 -247 156 -416 405 -416c132 0 270 48 367 140l20 -19c-105 -97 -255 -153 -398 -153c-262 0 -425 186 -425 443
c0 293 183 511 484 511c228 0 404 -131 404 -371c0 -145 -79 -357 -253 -357c-38 0 -87 13 -108 48c-35 -41 -82 -58 -136 -58c-97 0 -177 57 -177 159c0 135 118 218 245 218c-20 11 -116 59 -116 88c0 30 101 35 120 35c73 0 196 -19 196 -115c0 -28 -6 -56 -9 -84l65 -30
l-9 -17zM577 344c2 22 5 44 5 66c0 31 -19 58 -52 58c-24 0 -50 -19 -50 -45c0 -32 74 -66 97 -79zM558 57c-3 9 -4 17 -4 25v6l20 226c-15 20 -43 24 -66 24c-101 0 -154 -91 -154 -183c0 -73 39 -137 118 -137c35 0 63 12 86 39z" />
    <glyph glyph-name="A" unicode="A" 
d="M2 154h21c2 -32 0 -64 43 -64c87 0 141 132 162 200c-41 25 -66 65 -91 104l15 15c24 -28 56 -48 90 -61c10 45 15 90 15 136c0 59 -12 178 -93 178c-14 0 -29 -4 -42 -9l-12 16c44 43 116 71 177 71c189 0 252 -201 252 -357l19 9l38 -55c-19 -7 -38 -16 -57 -23v-314
h-104v281c-35 -10 -70 -17 -106 -17c-21 0 -42 3 -62 9c-16 -82 -76 -283 -183 -283c-74 0 -78 112 -82 164zM435 344v47c0 110 -39 317 -184 317c-32 0 -62 -11 -88 -26c108 4 123 -158 123 -235c0 -35 -2 -72 -7 -108c22 -4 44 -6 67 -6c30 0 60 4 89 11z" />
    <glyph glyph-name="B" unicode="B" horiz-adv-x="561" 
d="M278 382l16 -2c13 17 33 29 54 36c18 34 21 81 21 120c0 47 -10 175 -80 175c-57 0 -90 -72 -90 -121v-530c0 -38 -26 -60 -64 -60c-52 0 -85 38 -85 88v584c0 40 -26 35 -55 35v21h125c15 0 34 -7 34 -26v-657c0 -6 2 -16 11 -16c12 0 13 24 13 31v531
c0 81 55 148 139 148c110 0 156 -105 156 -200c0 -44 -9 -90 -33 -127c73 -33 100 -126 100 -200c0 -100 -51 -220 -166 -220c-117 0 -129 136 -129 224c0 51 5 102 9 153c-34 21 -41 74 -41 110c0 23 6 115 41 115c30 0 29 -78 29 -97c0 -38 -3 -77 -5 -115zM256 392
c2 23 4 46 4 69c0 6 1 33 -10 33c-16 0 -16 -45 -16 -53c0 -21 4 -36 22 -49zM280 338l3 19l-2 1h-3l-2 1c-3 -50 -6 -100 -6 -150c0 -49 -1 -189 72 -189c78 0 94 134 94 189c0 49 -8 120 -39 160c-20 -13 -45 -18 -70 -18c-9 0 -16 1 -24 2l-2 -15h-21z" />
    <glyph glyph-name="C" unicode="C" horiz-adv-x="516" 
d="M241 78l-19 -4c-43 78 -61 207 -61 294c0 127 44 318 204 318c6 0 11 -1 18 -1c-23 25 -55 40 -90 40c-145 0 -163 -247 -163 -347s20 -360 165 -360c76 0 116 77 133 140l73 -40c-43 -82 -118 -128 -211 -128c-193 0 -264 187 -264 352c0 186 93 398 307 398
c60 0 161 -23 180 -91l-103 -13c-20 19 -49 31 -76 31c-119 0 -152 -201 -152 -287c0 -96 22 -214 59 -302z" />
    <glyph glyph-name="D" unicode="D" horiz-adv-x="588" 
d="M217 118l72 40c6 -35 34 -140 82 -140c74 0 82 264 82 310c0 84 -14 380 -145 380c-85 0 -109 -121 -109 -186v-462c0 -38 -26 -60 -64 -60c-52 0 -85 38 -85 88v582c0 40 -27 35 -55 35v21h125c15 0 34 -7 34 -26v-655c0 -6 2 -16 11 -16c12 0 13 24 13 31v463
c0 100 49 217 164 217c175 0 215 -261 215 -389c0 -105 -30 -361 -178 -361c-73 0 -136 64 -162 128z" />
    <glyph glyph-name="E" unicode="E" horiz-adv-x="508" 
d="M498 34h-21c0 27 -12 65 -45 65c-52 0 -71 -107 -198 -107c-142 0 -211 126 -211 255c0 69 20 141 75 188c-13 27 -19 56 -19 85c0 106 85 219 198 219c84 0 139 -68 139 -149h-21c0 53 -35 121 -95 121c-81 0 -117 -121 -117 -185c0 -15 2 -32 5 -48c21 5 43 7 65 7
c51 0 144 -14 144 -82c0 -61 -69 -85 -119 -85c-48 0 -95 18 -130 49c-17 -38 -21 -81 -21 -123c0 -81 26 -224 133 -224c112 0 92 179 162 179c64 0 76 -121 76 -165zM202 434c19 -43 59 -87 109 -87c31 0 66 20 66 54c0 44 -54 55 -89 55c-30 0 -60 -6 -86 -22z" />
    <glyph glyph-name="F" unicode="F" horiz-adv-x="614" 
d="M35 327l-38 55c3 2 6 3 9 4c51 23 102 47 152 71v213c0 7 -4 12 -11 12c-12 0 -27 -6 -39 -9l-5 20c31 8 109 35 137 35c11 0 22 -5 22 -18v-200l24 12v92c0 106 137 125 217 125c14 0 126 -4 126 -25c0 -31 -289 -184 -322 -201v-35c21 5 43 8 64 8
c86 0 127 -66 168 -130l-15 -15c-41 48 -104 76 -167 76c-17 0 -33 -1 -50 -4v-353c0 -38 -26 -60 -63 -60c-52 0 -86 38 -86 88v287c-41 -13 -83 -30 -123 -48zM307 534c25 13 198 106 198 135c0 27 -74 41 -93 41c-58 0 -105 -35 -105 -96v-80zM262 490v-21c2 1 4 1 6 1
l12 3c2 0 4 1 6 1v28zM262 405v-360c0 -6 2 -16 11 -16c12 0 13 23 13 31v350c-8 -1 -15 -3 -24 -5z" />
    <glyph glyph-name="G" unicode="G" horiz-adv-x="552" 
d="M241 78l-19 -4c-43 78 -61 207 -61 294c0 127 44 318 204 318c6 0 11 -1 18 -1c-23 25 -55 40 -90 40c-145 0 -163 -247 -163 -347c0 -99 20 -360 164 -360c126 0 122 245 124 327h-130v21h244c0 -158 -60 -376 -254 -376c-185 0 -252 197 -252 352c0 186 93 398 307 398
c60 0 161 -23 180 -91l-103 -13c-20 19 -50 31 -77 31c-119 0 -151 -202 -151 -287c0 -96 22 -214 59 -302z" />
    <glyph glyph-name="H" unicode="H" horiz-adv-x="639" 
d="M466 319h-242c-15 0 -25 -10 -25 -25v-234c0 -38 -26 -60 -64 -60c-52 0 -85 38 -85 88v582c0 39 -25 35 -55 35v21h125c15 0 34 -7 34 -26v-655c0 -6 2 -16 11 -16c12 0 13 23 13 31v286c0 15 10 25 25 25h263v299c0 39 -25 35 -55 35v21h125c15 0 34 -7 34 -26v-655
c0 -21 38 -24 52 -24v-21h-83c-27 0 -73 9 -73 45v274z" />
    <glyph glyph-name="I" unicode="I" horiz-adv-x="248" 
d="M-5 705v21h125c15 0 34 -7 34 -26v-655c0 -6 2 -16 11 -16c12 0 13 23 13 31v666h21v-666c0 -38 -26 -60 -64 -60c-52 0 -85 38 -85 88v582c0 39 -25 35 -55 35z" />
    <glyph glyph-name="J" unicode="J" horiz-adv-x="314" 
d="M3 171h21c0 -42 20 -152 76 -152c64 0 63 158 63 196v455c0 40 -26 35 -55 35v21h125c15 0 34 -7 34 -26v-485c0 -93 -21 -225 -140 -225c-102 0 -124 98 -124 181z" />
    <glyph glyph-name="K" unicode="K" horiz-adv-x="531" 
d="M199 325v-265c0 -38 -26 -60 -64 -60c-52 0 -85 38 -85 88v584c0 40 -27 35 -55 35v21h125c15 0 34 -7 34 -26v-657c0 -6 2 -16 11 -16c12 0 13 24 13 31v294c0 287 167 385 363 385l-36 -119c-25 12 -54 18 -83 18c-100 0 -206 -71 -221 -230c29 -94 136 -318 219 -318
c27 0 23 45 23 64h21v-25c0 -30 -1 -139 -49 -139c-65 0 -173 216 -216 335z" />
    <glyph glyph-name="L" unicode="L" horiz-adv-x="447" 
d="M51 0v670c0 40 -26 35 -55 35v21h125c15 0 34 -7 34 -26v-672h135c59 0 88 36 88 92s-28 120 -64 163l97 22c15 -46 24 -94 24 -142c0 -99 -45 -164 -151 -164c-78 0 -155 1 -233 1z" />
    <glyph glyph-name="M" unicode="M" horiz-adv-x="968" 
d="M-5 705v21h125c15 0 34 -7 34 -26v-655c0 -6 2 -16 11 -16c12 0 13 24 13 31c0 154 1 309 1 463c0 124 63 217 195 217c71 0 163 -33 163 -118v-577c0 -6 2 -16 10 -16c13 0 14 24 14 31v463c0 124 73 217 201 217c72 0 156 -35 156 -118v-622h-104v620
c0 55 -43 82 -94 82c-99 0 -138 -95 -138 -180v-462c0 -38 -26 -60 -64 -60c-52 0 -85 38 -85 88v532c0 56 -47 88 -100 88c-101 0 -133 -102 -133 -186l-1 -462c0 -38 -26 -60 -64 -60c-52 0 -85 38 -85 88v582c0 40 -26 35 -55 35z" />
    <glyph glyph-name="N" unicode="N" horiz-adv-x="637" 
d="M484 0v620c0 63 -64 88 -118 88c-108 0 -167 -84 -167 -186v-462c0 -38 -26 -60 -64 -60c-52 0 -85 38 -85 88v582c0 40 -26 35 -55 35v21h125c15 0 34 -7 34 -26v-655c0 -6 2 -16 11 -16c12 0 13 24 13 31v463c0 138 98 217 231 217c72 0 179 -29 179 -118v-622h-104z
" />
    <glyph glyph-name="O" unicode="O" horiz-adv-x="584" 
d="M241 66l-19 -5c-46 86 -61 240 -61 335c0 130 27 282 191 282c163 0 204 -205 204 -332c0 -167 -65 -369 -266 -369c-193 0 -264 187 -264 353c0 197 99 398 321 398l-8 -29c-17 8 -35 13 -54 13c-137 0 -155 -254 -155 -347c0 -100 20 -360 165 -360
c138 0 157 238 157 333c0 78 -15 311 -132 311c-139 0 -138 -210 -138 -307c0 -87 25 -196 59 -276z" />
    <glyph glyph-name="P" unicode="P" horiz-adv-x="627" 
d="M-5 707v21h125c15 0 34 -7 34 -26v-657c0 -6 2 -16 11 -16c12 0 13 24 13 31v540c0 30 1 139 49 139c98 0 15 -470 163 -470c94 0 118 157 118 225c0 79 -24 211 -127 211c-33 0 -71 -18 -71 -55h-21c0 62 74 84 125 84c134 0 198 -113 198 -235
c0 -114 -66 -258 -198 -258c-204 0 -116 399 -192 399c-20 0 -23 -25 -23 -40v-540c0 -38 -26 -60 -64 -60c-52 0 -85 38 -85 88v584c0 40 -27 35 -55 35z" />
    <glyph glyph-name="Q" unicode="Q" horiz-adv-x="584" 
d="M241 78l-19 -4c-46 85 -61 239 -61 335c0 130 27 282 191 282c163 0 204 -205 204 -332c0 -119 -30 -262 -136 -332c24 -50 70 -70 123 -73v-21c-63 5 -116 24 -151 79c-31 -16 -66 -22 -102 -22c-193 0 -264 187 -264 352c0 198 99 398 321 398l-8 -29
c-17 9 -35 14 -54 14c-137 0 -155 -255 -155 -347c0 -100 20 -360 165 -360c30 0 56 12 76 32c-13 30 -28 73 -67 73c-28 0 -53 -19 -63 -45zM230 107c14 46 50 99 104 99c56 0 59 -76 66 -116c43 72 52 178 52 261c0 78 -15 310 -132 310c-139 0 -138 -210 -138 -306
c0 -80 20 -173 48 -248z" />
    <glyph glyph-name="R" unicode="R" horiz-adv-x="540" 
d="M208 347l24 2c4 -19 12 -38 20 -57c13 -10 30 -16 47 -16c91 0 112 144 112 211c0 66 -23 224 -116 224c-61 0 -96 -68 -96 -121v-530c0 -38 -26 -60 -64 -60c-52 0 -85 38 -85 88v584c0 40 -26 35 -55 35v21h125c15 0 34 -7 34 -26v-657c0 -6 2 -16 11 -16
c12 0 13 24 13 31v531c0 81 55 148 139 148c132 0 198 -143 198 -257c0 -112 -57 -235 -184 -235c-22 0 -43 5 -62 12c20 -39 109 -169 159 -169c27 0 23 45 23 64h20c0 -33 4 -164 -49 -164c-91 0 -195 280 -214 357z" />
    <glyph glyph-name="S" unicode="S" horiz-adv-x="533" 
d="M11 118l73 40c23 -81 93 -139 179 -139c102 0 146 83 146 176c0 134 -83 199 -192 257c-40 21 -82 40 -118 68c-22 -9 -44 -20 -67 -30l-9 19l60 26c-18 16 -28 39 -28 63c0 116 210 131 289 131c19 0 146 -1 146 -32c0 -26 -179 -89 -202 -98c-45 -18 -90 -36 -134 -55
c146 -74 359 -119 359 -326c0 -147 -111 -228 -251 -228c-96 0 -203 39 -251 128zM85 617c0 -28 25 -47 47 -61c75 33 170 65 241 101c3 1 13 7 13 11c0 16 -113 22 -130 22c-44 0 -171 -7 -171 -73z" />
    <glyph glyph-name="T" unicode="T" horiz-adv-x="589" 
d="M30 618l-38 55c103 43 326 104 437 104c85 0 127 -66 167 -130l-14 -15c-42 48 -104 76 -168 76c-11 0 -24 -1 -35 -2v-646c0 -38 -26 -60 -64 -60c-52 0 -85 38 -85 88v593c-67 -15 -137 -34 -200 -63zM334 700v-655c0 -6 2 -16 11 -16c12 0 13 23 13 31v644
c-8 -1 -16 -2 -24 -4z" />
    <glyph glyph-name="U" unicode="U" horiz-adv-x="650" 
d="M635 23v-21h-125c-16 0 -34 7 -34 26v655c0 7 -2 16 -11 16c-12 0 -13 -24 -13 -31v-463c0 -124 -81 -218 -208 -218c-175 0 -202 187 -202 324v417h104v-415c0 -90 4 -293 136 -293c100 0 149 98 149 186v462c0 38 26 60 63 60c52 0 86 -37 86 -88v-582
c0 -40 26 -35 55 -35z" />
    <glyph glyph-name="V" unicode="V" horiz-adv-x="647" 
d="M528 81l11 -15c-45 -45 -116 -72 -179 -72c-199 0 -296 219 -312 389l-31 351h104l30 -349c12 -130 76 -359 242 -359c33 0 65 10 93 26c-108 -4 -123 158 -123 234c0 56 7 112 18 167c16 82 75 292 184 292c74 0 78 -112 82 -165h-21c-1 32 -2 65 -42 65
c-139 0 -192 -293 -192 -394c0 -60 12 -179 93 -179c15 0 29 4 43 9z" />
    <glyph glyph-name="W" unicode="W" horiz-adv-x="853" 
d="M354 362l75 2c4 -72 35 -348 144 -348c125 0 145 353 145 431c0 45 -1 264 -74 264c-87 0 -103 -255 -103 -310c0 -108 17 -223 59 -323l-20 -4c-45 84 -60 235 -60 330c0 94 20 336 158 336c128 0 144 -225 144 -314c0 -56 -4 -112 -16 -168c-19 -97 -79 -268 -203 -268
c-92 0 -159 98 -192 173c-19 -77 -62 -169 -154 -169c-230 0 -221 583 -235 740h104c9 -116 6 -708 162 -708c77 0 84 100 84 156c0 60 -8 121 -18 180z" />
    <glyph glyph-name="X" unicode="X" horiz-adv-x="624" 
d="M8 1l29 115c9 -5 18 -7 27 -7c37 0 64 36 82 64l90 146c-38 74 -74 148 -110 223c-22 44 -42 90 -68 132c-4 6 -6 13 -15 11l-35 -8l-5 20c26 7 113 34 135 34c14 0 18 -6 24 -17c18 -30 31 -66 46 -98c30 -65 60 -129 92 -194l154 249c22 35 53 62 97 62
c40 0 67 -23 67 -63c0 -16 -4 -30 -9 -44l-104 30c3 5 9 15 9 21c0 5 -5 6 -9 6c-14 0 -20 -8 -29 -21l-164 -264c21 -40 153 -305 197 -305c26 0 55 82 62 103l17 -11c-13 -40 -70 -185 -124 -185c-64 0 -188 244 -216 295l-82 -132c-26 -41 -90 -163 -146 -163
c-4 0 -8 0 -12 1z" />
    <glyph glyph-name="Y" unicode="Y" horiz-adv-x="552" 
d="M236 60v121h21v-121c0 -21 17 -31 37 -31c98 0 111 178 111 245v416c0 6 -2 15 -10 15c-12 0 -13 -24 -13 -31v-341c0 -67 -112 -83 -160 -83c-60 0 -163 20 -163 98v328c0 7 -4 12 -11 12c-12 0 -27 -6 -39 -9l-5 20c31 8 109 35 137 35c11 0 22 -5 22 -17v-381
c0 -47 62 -57 97 -57c33 0 101 10 101 55v340c0 38 26 60 63 60c52 0 85 -37 85 -88v-372c0 -117 -44 -274 -187 -274c-37 0 -86 15 -86 60z" />
    <glyph glyph-name="Z" unicode="Z" horiz-adv-x="579" 
d="M151 28h67c113 0 248 -1 283 130l73 -40c-64 -122 -245 -118 -363 -118h-215c107 103 431 560 433 699h-160c-92 0 -149 -42 -173 -130l-73 40c51 96 151 119 252 119h271c-2 -109 -212 -449 -277 -544c-37 -54 -75 -107 -118 -156z" />
    <glyph glyph-name="bracketleft" unicode="[" horiz-adv-x="336" 
d="M50 -224v952h236v-31h-132v-889h132v-32h-236z" />
    <glyph glyph-name="backslash" unicode="\" horiz-adv-x="407" 
d="M325 -8l-275 736h32l275 -736h-32z" />
    <glyph glyph-name="bracketright" unicode="]" horiz-adv-x="336" 
d="M286 -224h-236v32h132v889h-132v31h236v-952z" />
    <glyph glyph-name="asciicircum" unicode="^" horiz-adv-x="379" 
d="M15 414l156 314h36l156 -314h-36l-137 283l-139 -283h-36z" />
    <glyph glyph-name="underscore" unicode="_" horiz-adv-x="620" 
d="M570 -215h-520v41h520v-41z" />
    <glyph glyph-name="grave" unicode="`" horiz-adv-x="168" 
d="M129 550l-135 178h104l52 -178h-21z" />
    <glyph glyph-name="a" unicode="a" horiz-adv-x="537" 
d="M442 291l25 -11v203h21l-1 -212l23 -10l-8 -17l-14 7v-191c0 -38 -26 -60 -63 -60c-35 0 -68 17 -86 47c-33 -42 -78 -57 -130 -57c-105 0 -191 66 -191 176c0 128 106 201 226 201c-24 13 -123 59 -123 93c0 26 101 30 116 30c82 0 206 -23 206 -127
c0 -24 -1 -48 -1 -72zM329 344v59c0 33 -21 65 -57 65c-23 0 -47 -17 -47 -42c0 -34 79 -69 104 -82zM335 57c-13 30 -6 213 -6 257c-17 19 -44 24 -68 24c-92 0 -139 -77 -139 -162c0 -80 43 -158 131 -158c34 0 61 12 82 39zM443 271v-226c0 -6 2 -16 11 -16
c11 0 13 23 13 31l-1 200c-7 4 -14 8 -23 11z" />
    <glyph glyph-name="b" unicode="b" horiz-adv-x="552" 
d="M236 80h20c0 -32 0 -55 40 -55c103 0 127 132 127 211c0 85 -27 225 -137 225c-96 0 -98 -123 -98 -193c0 -44 3 -89 3 -133c0 -41 2 -140 -59 -140c-65 0 -91 83 -91 135v504c0 8 -4 13 -11 13c-12 0 -27 -6 -39 -9l-5 19c31 9 109 36 137 36c11 0 22 -6 22 -18v-545
c0 -9 4 -39 19 -39c13 0 12 32 12 39c0 47 -5 94 -5 139c0 100 18 220 144 220c140 0 212 -132 212 -258c0 -122 -64 -235 -198 -235c-58 0 -93 23 -93 84z" />
    <glyph glyph-name="c" unicode="c" horiz-adv-x="444" 
d="M436 26l-42 -24c6 21 12 44 12 66c0 7 -1 32 -15 32c-29 0 -37 -110 -153 -110c-140 0 -213 131 -213 258c0 121 64 235 198 235c51 0 124 -22 124 -85h-20c0 38 -38 55 -71 55c-103 0 -127 -132 -127 -211c0 -81 26 -224 133 -224c97 0 95 104 133 104
c36 0 41 -73 41 -96z" />
    <glyph glyph-name="d" unicode="d" horiz-adv-x="574" 
d="M386 120v551c0 7 -4 12 -12 12c-11 0 -27 -6 -38 -9l-5 20c31 8 109 35 137 35c10 0 22 -5 22 -18v-666c0 -6 2 -16 10 -16c13 0 14 24 14 31v339h21v-339c0 -38 -26 -60 -64 -60c-53 0 -85 51 -85 99c-29 -16 -36 -109 -148 -109c-140 0 -213 131 -213 258
c0 121 64 235 198 235c51 0 124 -22 124 -85h-20c0 38 -38 55 -71 55c-103 0 -127 -132 -127 -211c0 -81 26 -224 133 -224c91 0 92 84 124 102z" />
    <glyph glyph-name="e" unicode="e" horiz-adv-x="451" 
d="M435 26l-42 -24c6 21 12 44 12 66c0 7 -1 32 -15 32c-29 0 -37 -110 -153 -110c-140 0 -213 131 -213 258c0 151 111 235 256 235c27 0 139 -9 139 -50c0 -59 -240 -232 -285 -264c12 -67 48 -151 127 -151c97 0 95 104 133 104c36 0 41 -73 41 -96zM132 183
c57 40 194 146 194 224c0 38 -35 57 -69 57c-104 0 -129 -143 -129 -222c0 -19 2 -39 4 -59z" />
    <glyph glyph-name="f" unicode="f" horiz-adv-x="408" 
d="M8 435v31h54c1 1 3 1 4 2l8 3c1 1 2 1 4 2v197c0 7 -4 12 -12 12c-11 0 -27 -6 -38 -9l-5 20c31 8 109 35 137 35c11 0 22 -5 22 -18v-188c8 4 16 7 24 12v80c0 100 123 125 202 125c16 0 120 -4 120 -30c0 -38 -268 -168 -302 -185v-58h180v-31h-180v-375
c0 -38 -26 -60 -63 -60c-52 0 -85 38 -85 88v347h-70zM226 544c22 10 198 99 198 123c0 26 -77 43 -96 43c-57 0 -102 -37 -102 -96v-70zM182 466h24v48l-24 -12v-36zM182 435v-390c0 -6 2 -16 10 -16c13 0 14 23 14 31v375h-24z" />
    <glyph glyph-name="g" unicode="g" horiz-adv-x="565" 
d="M248 -48h20v-121c0 -21 18 -31 38 -31c98 0 111 178 111 245v303c0 15 -4 40 -24 40c-19 0 -23 -25 -26 -39c-16 -107 29 -359 -140 -359c-134 0 -202 140 -202 258c0 121 64 235 198 235c51 0 124 -22 124 -85h-20c0 38 -39 55 -71 55c-103 0 -127 -132 -127 -211
c0 -80 26 -224 131 -224c169 0 -43 406 227 466c2 0 4 1 6 1c20 0 28 -20 28 -37v-403c0 -117 -45 -274 -187 -274c-38 0 -86 15 -86 60v121z" />
    <glyph glyph-name="h" unicode="h" horiz-adv-x="534" 
d="M388 0v396c0 47 -61 57 -96 57c-34 0 -101 -10 -101 -55v-338c0 -38 -26 -60 -64 -60c-52 0 -85 38 -85 88v583c0 7 -4 12 -11 12c-12 0 -27 -6 -39 -9l-5 20c31 8 109 35 137 35c12 0 22 -5 22 -18v-666c0 -6 2 -16 11 -16c12 0 13 23 13 31v339c0 67 111 84 159 84
c60 0 163 -21 163 -99v-384h-104z" />
    <glyph glyph-name="i" unicode="i" horiz-adv-x="259" 
d="M29 640c0 48 41 82 88 82s85 -31 85 -80c0 -51 -39 -72 -85 -72c-44 0 -88 19 -88 70zM50 628c0 -30 45 -37 68 -37c22 0 64 7 64 36c0 32 -46 43 -71 43c-24 0 -61 -12 -61 -42zM17 430l-5 19c31 9 110 36 137 36c12 0 22 -6 22 -18v-422c0 -6 2 -16 11 -16
c12 0 13 23 13 31v423h21v-423c0 -38 -26 -60 -64 -60c-52 0 -85 38 -85 88v338c0 8 -4 13 -11 13c-12 0 -27 -6 -39 -9z" />
    <glyph glyph-name="j" unicode="j" horiz-adv-x="216" 
d="M20 640c0 48 41 82 88 82s85 -31 85 -80c0 -51 -39 -72 -85 -72c-44 0 -88 19 -88 70zM41 628c0 -30 45 -37 68 -37c22 0 64 7 64 36c0 32 -46 43 -71 43c-24 0 -61 -12 -61 -42zM-50 -48h21v-120c0 -16 11 -32 28 -32c64 0 69 206 69 245v381c0 8 -5 13 -12 13
c-11 0 -27 -6 -38 -9l-6 19c32 9 110 36 138 36c11 0 22 -6 22 -18v-422c0 -92 -27 -274 -151 -274c-38 0 -71 20 -71 60v121z" />
    <glyph glyph-name="k" unicode="k" horiz-adv-x="503" 
d="M191 252v-192c0 -38 -26 -60 -64 -60c-52 0 -85 38 -85 88v582c0 7 -4 12 -11 12c-12 0 -27 -6 -39 -9l-5 20c31 8 109 35 137 35c12 0 22 -5 22 -18v-665c0 -6 2 -16 11 -16c12 0 13 23 13 31v297c0 94 109 126 186 126c20 0 136 -10 136 -40c0 -33 -192 -112 -220 -124
l138 -265c5 -9 18 -13 27 -13c14 0 29 3 43 5l3 -20c-34 -6 -117 -24 -148 -24c-9 0 -22 4 -27 13zM191 303c20 9 197 90 197 109c0 24 -79 41 -95 41c-57 0 -102 -37 -102 -96v-54z" />
    <glyph glyph-name="l" unicode="l" horiz-adv-x="230" 
d="M170 399h21v-339c0 -38 -26 -60 -64 -60c-52 0 -85 38 -85 88v582c0 7 -4 12 -11 12c-12 0 -27 -6 -39 -9l-5 20c31 8 110 35 137 35c12 0 22 -5 22 -18v-665c0 -6 2 -16 11 -16c12 0 13 23 13 31v339z" />
    <glyph glyph-name="m" unicode="m" horiz-adv-x="905" 
d="M17 430l-5 19c31 9 109 36 137 36c12 0 22 -6 22 -18v-422c0 -6 2 -16 11 -16c12 0 13 23 13 31v339c0 67 111 84 159 84c60 0 163 -21 163 -99v-339c0 -6 3 -16 11 -16c12 0 13 23 13 31v339c0 67 112 84 159 84c61 0 164 -21 164 -99v-384h-104v396c0 47 -62 57 -97 57
c-33 0 -101 -10 -101 -55v-338c0 -38 -26 -60 -63 -60c-52 0 -86 38 -86 88v308c0 47 -61 57 -96 57c-34 0 -101 -10 -101 -55v-338c0 -38 -26 -60 -64 -60c-52 0 -85 38 -85 88v338c0 8 -4 13 -11 13c-12 0 -27 -6 -39 -9z" />
    <glyph glyph-name="n" unicode="n" horiz-adv-x="559" 
d="M413 0v396c0 47 -61 57 -96 57c-34 0 -101 -10 -101 -55v-338c0 -38 -26 -60 -64 -60c-52 0 -85 38 -85 88v338c0 8 -4 13 -11 13c-12 0 -27 -6 -39 -9l-5 19c31 9 109 36 137 36c12 0 22 -6 22 -18v-422c0 -6 2 -16 11 -16c12 0 13 23 13 31v339c0 67 111 84 159 84
c60 0 163 -21 163 -99v-384h-104z" />
    <glyph glyph-name="o" unicode="o" horiz-adv-x="518" 
d="M192 398h-20c0 63 73 85 124 85c135 0 198 -114 198 -235c0 -144 -85 -258 -236 -258c-153 0 -232 116 -232 260c0 157 94 282 259 282l-8 -29c-13 7 -25 10 -39 10c-95 0 -108 -172 -108 -236c0 -80 19 -259 131 -259c104 0 129 146 129 224c0 79 -24 211 -127 211
c-32 0 -71 -17 -71 -55z" />
    <glyph glyph-name="p" unicode="p" horiz-adv-x="624" 
d="M18 431l-5 19c31 9 109 36 137 36c11 0 22 -5 22 -18v-666c0 -6 2 -15 11 -15c12 0 13 24 13 31v530c0 31 1 140 49 140c98 0 -17 -470 132 -470c94 0 118 157 118 224s-21 211 -113 211c-33 0 -54 -21 -54 -55h-21c0 60 55 85 107 85c127 0 184 -124 184 -235
c0 -115 -65 -258 -197 -258c-158 0 -123 244 -133 346c-2 16 -5 52 -28 52c-20 0 -23 -25 -23 -40v-530c0 -38 -26 -60 -64 -60c-52 0 -85 37 -85 88v581c0 8 -4 13 -11 13c-12 0 -27 -6 -39 -9z" />
    <glyph glyph-name="q" unicode="q" horiz-adv-x="610" 
d="M327 398h-21c0 36 -13 55 -50 55c-103 0 -127 -132 -127 -211c0 -71 24 -224 122 -224c159 0 -23 414 227 464c8 1 15 2 22 2c12 0 21 -3 21 -16v-666c0 -6 2 -15 10 -15c13 0 14 24 14 31v660h21v-660c0 -38 -26 -60 -64 -60c-52 0 -85 37 -85 88v502c0 14 -4 40 -23 40
c-44 0 -43 -200 -44 -226c-3 -82 -23 -172 -124 -172c-134 0 -201 141 -201 258c0 121 64 235 198 235c55 0 104 -22 104 -85z" />
    <glyph glyph-name="r" unicode="r" horiz-adv-x="527" 
d="M24 180l-8 17l59 27v196c0 7 -4 13 -11 13c-12 0 -27 -7 -39 -10l-5 20c31 8 109 35 137 35c12 0 22 -5 22 -17v-188c9 4 17 7 24 11v80c0 101 124 126 203 126c16 0 120 -4 120 -30c0 -39 -269 -169 -302 -185v-215c0 -38 -26 -60 -63 -60c-52 0 -86 38 -86 88v116
c-17 -7 -34 -16 -51 -24zM224 294c22 11 198 99 198 123c0 26 -77 44 -96 44c-57 0 -102 -38 -102 -97v-70zM179 253v-208c0 -6 2 -16 11 -16c12 0 13 23 13 31v204z" />
    <glyph glyph-name="s" unicode="s" horiz-adv-x="415" 
d="M77 2l-41 24c0 23 5 96 40 96c39 0 36 -104 123 -104c51 0 92 36 92 88c0 97 -149 117 -207 173c-19 -10 -39 -17 -58 -26l-8 16c4 2 9 4 13 6l27 12c4 2 9 4 13 6c-13 18 -21 40 -21 62c0 104 122 135 205 135c23 0 117 -4 117 -40c0 -40 -198 -129 -227 -142
c91 -37 249 -46 249 -177c0 -93 -77 -141 -164 -141c-112 0 -120 110 -150 110c-13 0 -14 -25 -14 -32c0 -22 5 -45 11 -66zM80 377c0 -29 20 -48 44 -60c16 8 144 65 144 88c0 34 -66 45 -91 45c-45 0 -97 -23 -97 -73z" />
    <glyph glyph-name="t" unicode="t" horiz-adv-x="294" 
d="M208 285h21v-225c0 -38 -26 -60 -64 -60c-52 0 -85 38 -85 88v347h-73v31h73v96c0 7 -4 12 -12 12c-11 0 -27 -6 -38 -9l-5 19c31 9 110 36 137 36c11 0 22 -5 22 -18v-136h97v-31h-97v-390c0 -6 2 -16 10 -16c13 0 14 23 14 31v225z" />
    <glyph glyph-name="u" unicode="u" horiz-adv-x="585" 
d="M17 430l-5 19c31 9 109 36 137 36c12 0 22 -6 22 -18v-381c0 -46 62 -57 97 -57c33 0 101 11 101 55v340c0 39 26 61 63 61c52 0 85 -38 85 -89v-338c0 -7 5 -12 12 -12c11 0 27 6 38 9l6 -20c-32 -8 -110 -35 -138 -35c-11 0 -22 5 -22 18v422c0 6 -2 16 -10 16
c-12 0 -13 -23 -13 -32v-341c0 -66 -112 -83 -160 -83c-60 0 -163 21 -163 99v327c0 8 -4 13 -11 13c-12 0 -27 -6 -39 -9z" />
    <glyph glyph-name="v" unicode="v" horiz-adv-x="633" 
d="M6 430l-5 19c28 8 111 35 136 35c12 0 19 -6 23 -17c20 -58 83 -374 150 -374c27 0 50 60 57 80l94 247c15 42 46 65 91 65c36 0 70 -16 70 -56c0 -12 -2 -22 -6 -33l-133 -349l42 8l5 -20c-33 -8 -111 -35 -141 -35c-14 0 -25 6 -25 21c0 6 2 12 4 18
c15 37 152 391 152 404c0 7 -4 13 -13 13c-42 0 -130 -456 -247 -456c-94 0 -171 351 -204 426c-3 8 -6 14 -15 12z" />
    <glyph glyph-name="w" unicode="w" horiz-adv-x="924" 
d="M6 430l-5 19c28 8 111 35 136 35c13 0 19 -6 23 -17c8 -21 12 -48 18 -70c11 -45 76 -304 128 -304c30 0 48 57 51 80l29 232c5 39 39 64 78 64c63 0 92 -60 101 -114c5 -36 12 -242 53 -242c17 0 31 31 36 44l98 263c14 40 53 65 95 65c36 0 66 -18 66 -56
c0 -11 -2 -22 -6 -33l-133 -349l42 8l6 -20c-34 -8 -112 -35 -142 -35c-13 0 -25 6 -25 21c0 6 2 12 4 18c15 37 152 391 152 404c0 7 -4 13 -12 13c-16 0 -23 -31 -27 -42l-95 -251c-15 -37 -67 -163 -118 -163c-80 0 -91 345 -106 409c-3 11 -7 31 -22 31
c-18 0 -23 -29 -25 -42l-31 -235c-6 -51 -45 -163 -112 -163c-97 0 -174 348 -207 426c-3 8 -6 14 -15 12z" />
    <glyph glyph-name="x" unicode="x" horiz-adv-x="491" 
d="M6 1l49 94c6 -3 13 -5 21 -5c49 0 87 63 107 100c-22 51 -42 102 -62 154c-9 27 -17 56 -30 82c-3 8 -6 14 -15 12l-35 -8l-5 19c28 8 111 35 136 35c13 0 19 -6 23 -17c6 -15 10 -32 14 -47c12 -37 26 -75 39 -111l61 111c20 39 62 65 106 65c32 0 58 -15 58 -50
c0 -20 -8 -40 -18 -57l-99 30c5 12 15 28 15 41c0 3 -1 7 -5 7c-26 0 -100 -156 -108 -172c13 -34 75 -191 118 -191c31 0 57 80 66 103l17 -11c-15 -47 -69 -185 -133 -185c-55 0 -113 125 -132 166c-29 -54 -105 -166 -175 -166c-5 0 -9 0 -13 1z" />
    <glyph glyph-name="y" unicode="y" horiz-adv-x="560" 
d="M244 -48h21v-120c0 -22 17 -32 37 -32c98 0 111 178 111 245v395c0 6 -2 16 -10 16c-12 0 -13 -23 -13 -32v-341c0 -66 -112 -83 -160 -83c-60 0 -163 21 -163 99v327c0 8 -4 13 -11 13c-12 0 -27 -6 -39 -9l-5 19c31 9 109 36 137 36c12 0 22 -6 22 -18v-381
c0 -46 62 -57 97 -57c33 0 101 11 101 55v340c0 39 26 61 63 61c52 0 85 -38 85 -89v-351c0 -117 -44 -274 -187 -274c-37 0 -86 15 -86 61v120z" />
    <glyph glyph-name="z" unicode="z" horiz-adv-x="373" 
d="M355 26l-41 -24c6 21 11 44 11 66c0 9 -1 32 -15 32c-29 0 -37 -110 -167 -110c-50 0 -128 22 -128 84c0 17 6 32 15 46c19 30 204 310 204 321c0 14 -17 15 -27 15h-175l2 29h197c36 0 107 -15 107 -62c0 -9 -4 -18 -9 -27l-201 -306c-5 -9 -9 -17 -9 -26
c0 -35 41 -46 68 -46c91 0 89 104 128 104c35 0 40 -72 40 -96z" />
    <glyph glyph-name="braceleft" unicode="{" horiz-adv-x="367" 
d="M400 -203v-21c-131 0 -224 35 -224 179c0 52 9 103 9 155c0 93 -42 128 -135 128v27c93 0 135 36 135 128c0 52 -9 103 -9 155c0 145 93 179 224 179v-21c-84 0 -125 -31 -125 -116c0 -56 13 -112 13 -167c0 -102 -47 -153 -146 -171c99 -19 146 -70 146 -172
c0 -55 -13 -110 -13 -166c0 -86 41 -117 125 -117z" />
    <glyph glyph-name="bar" unicode="|" horiz-adv-x="132" 
d="M81 -218h-31v946h31v-946z" />
    <glyph glyph-name="braceright" unicode="}" horiz-adv-x="367" 
d="M-34 -224v21c84 0 126 31 126 117c0 56 -14 111 -14 166c0 102 47 153 147 172c-100 18 -147 69 -147 171c0 55 14 111 14 167c0 85 -42 116 -126 116v21c131 0 225 -34 225 -179c0 -52 -10 -103 -10 -155c0 -92 43 -128 135 -128v-27c-92 0 -135 -35 -135 -128
c0 -52 10 -103 10 -155c0 -144 -94 -179 -225 -179z" />
    <glyph glyph-name="asciitilde" unicode="~" horiz-adv-x="578" 
d="M45 212h-27c4 73 32 123 111 123c110 0 210 -71 319 -71c59 0 86 33 90 91h21c-4 -76 -32 -133 -116 -133c-109 0 -210 72 -317 72c-53 0 -77 -30 -81 -82z" />
    <glyph glyph-name="uni00A0" unicode="&#xa0;" horiz-adv-x="242" 
 />
    <glyph glyph-name="exclamdown" unicode="&#xa1;" horiz-adv-x="167" 
d="M31 443c0 29 23 52 52 52c28 0 52 -24 52 -52s-24 -52 -52 -52s-52 24 -52 52zM73 305h21l40 -420c1 -8 1 -14 1 -21c0 -32 -10 -82 -51 -82s-54 51 -54 84c0 6 0 12 1 19z" />
    <glyph glyph-name="cent" unicode="&#xa2;" horiz-adv-x="461" 
d="M82 -190l69 203c-86 45 -122 142 -122 235c0 121 64 235 198 235c26 0 53 -5 77 -16l68 204h31l-74 -222c14 -13 22 -31 22 -51h-20c0 11 -3 21 -10 29l-128 -379c20 -20 46 -30 73 -30c97 0 95 104 133 104c36 0 41 -73 41 -96l-42 -24c6 21 12 44 12 66
c0 8 -1 32 -15 32c-29 0 -37 -110 -153 -110c-22 0 -43 3 -64 10l-65 -190h-31zM172 76l124 370c-11 4 -24 7 -36 7c-103 0 -127 -132 -127 -211c0 -56 8 -118 39 -166z" />
    <glyph glyph-name="sterling" unicode="&#xa3;" horiz-adv-x="608" 
d="M139 341h-106v31h106v92c-33 -16 -65 -31 -98 -46l-9 17c36 15 72 32 107 49v19c0 157 146 225 284 225c16 0 119 -4 119 -29c0 -37 -265 -168 -299 -184v-143h128v-31h-128c0 -73 8 -153 -13 -223c69 -17 137 -46 210 -46c55 0 122 18 141 76h21
c-24 -79 -58 -158 -153 -158c-79 0 -165 50 -237 81c-22 -44 -59 -79 -110 -79c-38 0 -74 21 -74 62c0 54 60 73 105 75c5 32 6 66 6 98v114zM355 699c-79 0 -106 -103 -111 -164c21 10 194 96 194 120c0 23 -66 44 -83 44zM77 21c31 0 45 53 50 76c-5 1 -11 1 -16 1
c-28 0 -60 -12 -60 -45c0 -15 8 -32 26 -32z" />
    <glyph glyph-name="currency" unicode="&#xa4;" horiz-adv-x="541" 
d="M127 178l-74 -74l-23 23l74 74c-33 40 -52 91 -52 143s19 103 53 143l-75 75l23 22l75 -74c39 34 90 54 143 54c52 0 102 -21 142 -54l75 74l22 -22l-74 -75c34 -40 55 -91 55 -143c0 -53 -20 -104 -54 -143l73 -74l-22 -23l-74 74c-40 -34 -91 -53 -143 -53
c-53 0 -105 19 -144 53zM83 344c0 -104 84 -188 188 -188s189 84 189 188c0 101 -88 188 -189 188c-104 0 -188 -84 -188 -188z" />
    <glyph glyph-name="yen" unicode="&#xa5;" horiz-adv-x="624" 
d="M389 103h-106l11 31h106c7 24 10 48 13 73h-130l11 31h121c1 12 1 24 1 36v416c0 6 -2 15 -10 15c-12 0 -13 -23 -13 -31v-341c0 -67 -112 -83 -160 -83c-60 0 -163 20 -163 98v328c0 7 -4 12 -11 12c-12 0 -27 -6 -39 -9l-5 20c31 8 109 35 137 35c12 0 22 -5 22 -17
v-381c0 -47 62 -57 97 -57c33 0 101 10 101 55v340c0 38 26 60 63 60c52 0 85 -37 85 -88v-372c0 -12 0 -24 -1 -36h78l-10 -31h-71c-3 -25 -8 -50 -17 -73h98l-10 -31h-102c-30 -60 -82 -103 -152 -103c-37 0 -86 15 -86 60v121h21v-121c0 -21 17 -31 37 -31
c43 0 70 39 84 74z" />
    <glyph glyph-name="brokenbar" unicode="&#xa6;" horiz-adv-x="118" 
d="M43 343v385h31v-385h-31zM43 -218v384h31v-384h-31z" />
    <glyph glyph-name="section" unicode="&#xa7;" horiz-adv-x="443" 
d="M402 39l8 -17c-16 -7 -32 -15 -47 -22c9 -20 15 -42 15 -63c0 -104 -121 -136 -205 -136c-22 0 -116 5 -116 40c0 41 218 138 247 152c-88 84 -270 161 -270 302c0 74 48 124 119 138c-23 25 -46 50 -63 80c-15 -8 -32 -15 -48 -22l-8 17c17 7 32 14 48 21
c-9 20 -16 42 -16 64c0 104 122 135 205 135c23 0 117 -4 117 -40c0 -41 -219 -138 -248 -151c89 -85 270 -162 270 -303c0 -74 -47 -124 -118 -137c23 -25 46 -50 62 -80zM128 550c16 7 156 69 156 93c0 34 -66 45 -91 45c-45 0 -97 -22 -97 -73c0 -25 15 -47 32 -65z
M260 131c30 16 47 46 47 79c0 70 -77 142 -122 188c-30 -15 -47 -45 -47 -79c0 -69 77 -141 122 -188zM317 -21c-17 -7 -156 -68 -156 -92c0 -35 65 -46 90 -46c45 0 97 23 97 74c0 25 -14 46 -31 64z" />
    <glyph glyph-name="dieresis" unicode="&#xa8;" horiz-adv-x="348" 
d="M226 624c0 28 24 52 52 52s52 -24 52 -52s-24 -52 -52 -52c-29 0 -52 23 -52 52zM18 624c0 28 24 52 52 52s52 -24 52 -52s-24 -52 -52 -52c-29 0 -52 23 -52 52z" />
    <glyph glyph-name="copyright" unicode="&#xa9;" horiz-adv-x="817" 
d="M409 -10c-224 0 -375 153 -375 376c0 224 151 372 373 372c224 0 376 -149 376 -374c0 -222 -150 -374 -374 -374zM66 362c0 -207 135 -341 342 -341s344 134 344 342c0 206 -135 344 -342 344s-344 -137 -344 -345zM382 168l-13 -4c-29 54 -42 143 -42 203
c0 88 30 220 141 220c1 0 2 -1 3 -1h5h3c-15 16 -37 27 -60 27c-101 0 -114 -169 -114 -240c0 -68 15 -247 115 -247c52 0 79 54 91 97l50 -28c-30 -56 -82 -88 -145 -88c-133 0 -181 129 -181 242c0 129 63 274 211 274c40 0 110 -17 124 -62l-72 -9c-14 13 -34 21 -52 21
c-81 0 -104 -139 -104 -198c0 -65 14 -147 40 -207z" />
    <glyph glyph-name="ordfeminine" unicode="&#xaa;" horiz-adv-x="353" 
d="M284 626v-44l15 -6v123h12v-128l14 -6l-6 -11l-8 4v-116c0 -24 -16 -36 -38 -36c-21 0 -42 10 -52 28c-20 -25 -48 -35 -80 -35c-63 0 -115 41 -115 107c0 78 65 123 137 123c-14 7 -75 36 -75 56c0 15 62 18 71 18c50 0 125 -13 125 -77zM152 665c0 -21 48 -43 62 -50
v35c0 21 -12 41 -34 41c-15 0 -28 -11 -28 -26zM169 416c20 0 37 8 49 24c-10 30 -4 121 -4 157c-10 11 -26 15 -40 15c-56 0 -86 -47 -86 -99c0 -49 26 -97 81 -97zM299 442v122l-15 7v-138c0 -3 2 -10 6 -10c7 0 9 14 9 19z" />
    <glyph glyph-name="guillemotleft" unicode="&#xab;" horiz-adv-x="475" 
d="M452 -3h-21l-208 266l208 255h21l-125 -255zM244 -3h-21l-208 266l208 255h21l-125 -255z" />
    <glyph glyph-name="logicalnot" unicode="&#xac;" horiz-adv-x="585" 
d="M12 410v31h546v-202h-31v171h-515z" />
    <glyph glyph-name="uni00AD" unicode="&#xad;" horiz-adv-x="0" 
 />
    <glyph glyph-name="registered" unicode="&#xae;" horiz-adv-x="817" 
d="M409 -10c-224 0 -375 153 -375 376c0 224 151 372 373 372c224 0 376 -149 376 -374c0 -222 -150 -374 -374 -374zM66 362c0 -207 135 -341 342 -341s344 134 344 342c0 206 -135 344 -342 344s-344 -137 -344 -345zM376 353l15 2c2 -13 6 -24 11 -36c7 -6 18 -9 28 -9
c55 0 67 86 67 126s-15 133 -70 133c-35 0 -56 -42 -56 -73v-314c0 -24 -16 -36 -38 -36c-32 0 -51 23 -51 53v347c0 23 -16 20 -32 20v13h74c9 0 20 -5 20 -15v-391c0 -5 2 -9 7 -9c6 0 8 15 8 18v315c0 49 33 89 83 89c79 0 117 -87 117 -154s-34 -139 -110 -139
c-13 0 -25 2 -36 8c12 -24 63 -101 93 -101c18 0 15 27 15 38h11c0 -20 3 -99 -28 -99c-55 0 -116 167 -128 214z" />
    <glyph glyph-name="macron" unicode="&#xaf;" horiz-adv-x="620" 
d="M570 738h-520v42h520v-42z" />
    <glyph glyph-name="degree" unicode="&#xb0;" horiz-adv-x="365" 
d="M183 393c-93 0 -155 60 -155 154s61 155 155 155s154 -62 154 -155c0 -92 -61 -154 -154 -154zM182 660c-67 0 -112 -44 -112 -111s46 -114 114 -114c67 0 111 48 111 113c0 67 -46 112 -113 112z" />
    <glyph glyph-name="plusminus" unicode="&#xb1;" horiz-adv-x="526" 
d="M21 331v31h226v227h31v-227h227v-31h-227v-226h-31v226h-226zM21 73v31h484v-31h-484z" />
    <glyph glyph-name="twosuperior" unicode="&#xb2;" horiz-adv-x="337" 
d="M280 338h-247v10h247c4 0 16 1 16 9c0 4 -5 5 -8 5h-250c-7 0 -8 7 -8 12v7c27 144 237 139 237 229c0 56 -70 73 -113 73s-107 -15 -107 -69c0 -19 9 -39 30 -39v-11c-34 0 -46 38 -46 66c0 71 56 109 123 109c62 0 128 -37 128 -106c0 -117 -200 -161 -200 -201
c0 -12 14 -14 22 -14h160c28 0 48 -18 48 -46c0 -19 -12 -34 -32 -34z" />
    <glyph glyph-name="threesuperior" unicode="&#xb3;" horiz-adv-x="308" 
d="M205 331h-175v22h175c31 0 48 39 48 65c0 38 -25 46 -57 46c-22 0 -44 -3 -66 -3c-32 0 -57 8 -57 44c0 90 143 69 143 125c0 40 -63 52 -92 52c-27 0 -80 -9 -80 -46c0 -17 12 -29 30 -29v-11c-31 0 -47 29 -47 57c0 59 53 86 106 86s109 -29 109 -88
c0 -81 -116 -90 -116 -127c0 -9 8 -10 15 -10c23 0 45 7 68 7c54 0 70 -36 70 -85c0 -47 -18 -105 -74 -105z" />
    <glyph glyph-name="acute" unicode="&#xb4;" horiz-adv-x="168" 
d="M18 550l52 178h104l-135 -178h-21z" />
    <glyph glyph-name="uni03BC" unicode="&#x3bc;" horiz-adv-x="610" 
d="M580 55l6 -20c-32 -8 -110 -35 -138 -35c-11 0 -22 5 -22 18v422c0 6 -2 16 -10 16c-12 0 -13 -23 -13 -32v-341c0 -66 -112 -83 -160 -83c-38 0 -81 6 -115 26c6 -54 27 -111 27 -165c0 -34 -12 -72 -52 -72c-38 0 -52 35 -52 68c0 82 29 160 29 242v327
c0 8 -4 13 -11 13c-12 0 -27 -6 -39 -9l-5 19c31 9 109 36 137 36c12 0 22 -6 22 -18v-381c0 -46 62 -57 97 -57c33 0 101 11 101 55v340c0 39 26 61 63 61c52 0 85 -38 85 -89v-338c0 -7 5 -12 12 -12c11 0 27 6 38 9z" />
    <glyph glyph-name="paragraph" unicode="&#xb6;" horiz-adv-x="511" 
d="M259 -227v566c-120 0 -239 67 -239 200s123 189 239 189h232v-31h-73v-924h-31v924h-97v-924h-31z" />
    <glyph glyph-name="periodcentered" unicode="&#xb7;" horiz-adv-x="140" 
d="M18 364c0 28 24 52 52 52s52 -24 52 -52s-24 -52 -52 -52c-29 0 -52 23 -52 52z" />
    <glyph glyph-name="onesuperior" unicode="&#xb9;" horiz-adv-x="180" 
d="M114 336h-57v341c0 5 -2 13 -9 13c-5 0 -12 -3 -17 -5l-4 11c20 10 60 40 87 40c19 0 30 -15 30 -33v-366h-11v366c0 11 -6 22 -19 22v-389z" />
    <glyph glyph-name="ordmasculine" unicode="&#xba;" horiz-adv-x="324" 
d="M124 636h-13c0 36 43 48 72 48c77 0 113 -64 113 -134c0 -82 -49 -147 -135 -147c-87 0 -133 66 -133 148c0 90 54 162 149 162l-5 -16c-7 3 -15 5 -22 5c-54 0 -62 -99 -62 -136c0 -45 11 -147 74 -147c59 0 74 83 74 128s-12 121 -72 121c-18 0 -40 -10 -40 -32z" />
    <glyph glyph-name="guillemotright" unicode="&#xbb;" horiz-adv-x="475" 
d="M252 -3h-21l125 266l-125 255h21l208 -255zM44 -3h-21l125 266l-125 255h21l208 -255z" />
    <glyph glyph-name="onequarter" unicode="&#xbc;" horiz-adv-x="703" 
d="M56 336v341c0 5 -2 13 -9 13c-5 0 -12 -3 -17 -5l-4 11c20 10 60 40 87 40c19 0 30 -15 30 -33v-366h-11v366c0 11 -6 22 -19 22v-389h-57zM92 -8l468 736h32l-468 -736h-32zM578 137v-51c-25 0 -128 -3 -145 17c-7 7 -7 18 -7 26c0 132 48 254 198 254c5 0 19 0 19 -8
v-355c0 -4 1 -8 6 -8c6 0 6 13 6 16v353h12v-353c0 -20 -14 -32 -34 -32c-27 0 -44 21 -44 47v269c0 18 -14 21 -29 21c-89 0 -112 -101 -112 -171c0 -33 41 -25 65 -25h65z" />
    <glyph glyph-name="onehalf" unicode="&#xbd;" horiz-adv-x="748" 
d="M56 336v341c0 5 -2 13 -9 13c-5 0 -12 -3 -17 -5l-4 11c20 10 60 40 87 40c19 0 30 -15 30 -33v-366h-11v366c0 11 -6 22 -19 22v-389h-57zM92 -8l468 736h32l-468 -736h-32zM451 -5v10h247c4 0 16 1 16 9c0 4 -5 5 -8 5h-249c-8 0 -9 7 -9 12v7c34 148 237 139 237 229
c0 55 -69 73 -113 73c-43 0 -107 -15 -107 -70c0 -18 9 -38 30 -38v-11c-34 0 -46 38 -46 66c0 71 56 109 123 109c62 0 128 -37 128 -106c0 -117 -200 -161 -200 -202c0 -11 14 -13 22 -13h160c28 0 48 -18 48 -46c0 -20 -11 -34 -32 -34h-247z" />
    <glyph glyph-name="threequarters" unicode="&#xbe;" horiz-adv-x="727" 
d="M29 331v22h175c31 0 48 39 48 65c0 38 -25 46 -57 46c-22 0 -44 -3 -66 -3c-32 0 -57 8 -57 44c0 90 143 69 143 125c0 40 -63 52 -92 52c-27 0 -80 -9 -80 -46c0 -17 12 -29 30 -29v-11c-31 0 -47 29 -47 57c0 59 53 86 106 86s109 -29 109 -88
c0 -81 -116 -90 -116 -127c0 -9 8 -10 15 -10c23 0 45 7 68 7c54 0 70 -36 70 -85c0 -47 -18 -105 -74 -105h-175zM116 -8l467 736h33l-468 -736h-32zM602 137v-51c-25 0 -128 -3 -145 17c-7 7 -7 18 -7 26c0 132 48 254 198 254c5 0 19 0 19 -8v-355c0 -4 1 -8 6 -8
c6 0 6 13 6 16v353h12v-353c0 -20 -14 -32 -34 -32c-27 0 -44 21 -44 47v269c0 18 -14 21 -30 21c-88 0 -111 -101 -111 -171c0 -33 41 -25 65 -25h65z" />
    <glyph glyph-name="questiondown" unicode="&#xbf;" horiz-adv-x="474" 
d="M320 479c0 -28 -24 -52 -52 -52s-52 24 -52 52c0 29 24 52 52 52c29 0 52 -22 52 -52zM386 83v21c63 0 84 -70 84 -122c0 -130 -104 -200 -226 -200c-127 0 -236 75 -236 211c0 201 245 192 245 264c0 30 -38 27 -59 27c23 19 116 104 140 104c12 0 16 -11 16 -22
c0 -4 0 -8 -1 -12c-59 -272 -313 -170 -313 -325c0 -108 120 -143 208 -143c78 0 197 29 197 127c0 33 -18 70 -55 70z" />
    <glyph glyph-name="AE" unicode="&#xc6;" horiz-adv-x="919" 
d="M2 154h21c2 -32 1 -64 43 -64c86 0 140 127 161 195c-45 25 -74 67 -100 109l14 15c26 -31 63 -52 101 -64c10 45 15 92 15 138c0 59 -11 179 -93 179c-14 0 -29 -3 -42 -9l-12 16c44 43 116 71 177 71c101 0 175 -65 214 -153c25 80 100 152 187 152
c85 0 140 -68 140 -149h-21c0 53 -35 121 -96 121c-81 0 -116 -121 -116 -185c0 -15 2 -32 5 -48c21 5 43 7 64 7c51 0 145 -14 145 -82c0 -61 -70 -85 -120 -85c-47 0 -94 18 -130 49c-16 -38 -20 -81 -20 -123c0 -81 26 -224 133 -224c112 0 91 179 162 179
c63 0 76 -121 76 -165h-21c0 27 -12 65 -46 65c-52 0 -70 -107 -197 -107c-143 0 -211 130 -211 258v33c-38 -10 -77 -19 -116 -19c-17 0 -35 2 -53 6c-16 -80 -76 -280 -182 -280c-74 0 -78 112 -82 164zM435 347v44c0 110 -39 317 -184 317c-32 0 -62 -11 -88 -26
c107 4 123 -157 123 -233c0 -37 -3 -74 -8 -111c19 -3 39 -5 59 -5c33 0 66 5 98 14zM613 434c19 -43 60 -87 110 -87c31 0 65 20 65 54c0 44 -54 55 -88 55c-30 0 -61 -6 -87 -22z" />
    <glyph glyph-name="Eth" unicode="&#xd0;" horiz-adv-x="617" 
d="M246 118l73 40c5 -35 33 -140 82 -140c74 0 81 264 81 310c0 84 -13 380 -144 380c-86 0 -110 -121 -110 -186v-138h181v-31h-181v-293c0 -38 -26 -60 -63 -60c-52 0 -85 38 -85 88v265h-68v31h68v286c0 40 -27 35 -55 35v21h124c16 0 35 -7 35 -26v-316h24v139
c0 100 48 217 164 217c175 0 214 -261 214 -389c0 -105 -29 -361 -178 -361c-73 0 -136 64 -162 128zM208 353h-24v-308c0 -6 2 -16 10 -16c13 0 14 23 14 31v293z" />
    <glyph glyph-name="multiply" unicode="&#xd7;" horiz-adv-x="406" 
d="M43 165l-22 22l160 160l-160 159l23 22l159 -159l160 160l22 -23l-160 -160l160 -160l-22 -22l-160 161z" />
    <glyph glyph-name="Oslash" unicode="&#xd8;" horiz-adv-x="620" 
d="M37 -7l-24 20l82 103c-33 65 -46 141 -46 214c0 197 99 398 322 398l-9 -29c-16 8 -35 13 -54 13c-137 0 -155 -254 -155 -347c0 -53 5 -107 14 -159l28 36c-6 51 -10 103 -10 154c0 130 27 282 190 282c48 0 90 -20 123 -55l85 108l25 -20l-91 -114
c48 -71 63 -166 63 -251c0 -167 -66 -369 -266 -369c-85 0 -156 40 -202 110zM212 262l232 293c-17 43 -48 94 -100 94c-140 0 -139 -210 -139 -307c0 -27 3 -54 7 -80zM265 66l-20 -5c-22 41 -35 93 -44 139l-26 -32c18 -69 60 -163 144 -163c137 0 157 238 157 333
c0 60 -4 123 -21 181l-237 -298c10 -53 25 -105 47 -155z" />
    <glyph glyph-name="Thorn" unicode="&#xde;" horiz-adv-x="608" 
d="M289 515h-20c0 62 73 84 124 84c134 0 198 -113 198 -235c0 -124 -71 -258 -210 -258c-135 0 -151 143 -151 248c0 75 12 149 12 224c0 14 1 62 -22 62c-19 0 -21 -27 -21 -40v-540c0 -38 -26 -60 -64 -60c-52 0 -85 38 -85 88v584c0 40 -26 35 -55 35v21h125
c15 0 34 -7 34 -26v-657c0 -6 2 -16 11 -16c12 0 13 24 13 31v540c0 28 1 139 46 139c36 0 34 -83 34 -105c0 -88 -10 -175 -10 -264c0 -73 2 -236 107 -236c106 0 132 145 132 225c0 79 -24 211 -127 211c-33 0 -71 -18 -71 -55z" />
    <glyph glyph-name="germandbls" unicode="&#xdf;" horiz-adv-x="501" 
d="M137 0h-125v21c28 0 55 -5 55 35v500c0 108 60 172 169 172c96 0 188 -55 188 -160c0 -85 -64 -144 -143 -161c112 -28 200 -114 200 -233c0 -108 -74 -181 -182 -181s-102 82 -107 165h21c1 -45 -6 -124 57 -124c80 0 108 90 108 156c0 113 -65 203 -183 207v21
c88 0 125 79 125 157c0 46 -16 129 -76 129c-65 0 -73 -102 -73 -148v-530c0 -19 -19 -26 -34 -26z" />
    <glyph glyph-name="ae" unicode="&#xe6;" horiz-adv-x="755" 
d="M739 26l-42 -24c6 21 12 44 12 66c0 7 -1 32 -15 32c-29 0 -37 -110 -153 -110c-68 0 -130 35 -167 92c-42 -55 -113 -92 -182 -92c-100 0 -175 77 -175 176c0 120 113 201 226 201c-24 13 -123 59 -123 93c0 26 101 30 116 30c59 0 138 -11 175 -60c49 38 111 53 173 53
c27 0 139 -9 139 -50c0 -59 -240 -232 -285 -264c12 -67 47 -151 127 -151c97 0 95 104 133 104c36 0 41 -73 41 -96zM328 344v59c0 33 -21 65 -57 65c-23 0 -47 -17 -47 -42c0 -34 79 -69 104 -82zM436 183c57 40 194 146 194 224c0 38 -35 57 -69 57
c-104 0 -129 -143 -129 -222c0 -19 2 -39 4 -59zM367 92c-45 73 -39 138 -39 222c-17 19 -44 24 -68 24c-92 0 -139 -77 -139 -162c0 -71 37 -158 120 -158c50 0 98 34 126 74z" />
    <glyph glyph-name="eth" unicode="&#xf0;" horiz-adv-x="522" 
d="M316 66h-21c29 65 47 136 47 208c0 60 -22 179 -103 179c-89 0 -110 -146 -110 -211c0 -78 25 -224 129 -224c111 0 131 174 131 255c0 123 -33 256 -125 346l-146 -77l-15 27l136 72c-55 43 -122 66 -192 68v21c85 0 170 -20 243 -63l103 54l15 -27l-88 -46
c120 -86 173 -223 173 -367c0 -150 -62 -291 -232 -291c-151 0 -236 114 -236 258c0 111 57 235 184 235c115 0 152 -110 152 -206c0 -72 -18 -145 -45 -211z" />
    <glyph glyph-name="divide" unicode="&#xf7;" horiz-adv-x="584" 
d="M240 458c0 28 24 52 52 52s52 -24 52 -52s-24 -52 -52 -52c-29 0 -52 23 -52 52zM50 314v31h484v-31h-484zM240 198c0 28 24 52 52 52s52 -24 52 -52s-24 -52 -52 -52c-29 0 -52 23 -52 52z" />
    <glyph glyph-name="oslash" unicode="&#xf8;" horiz-adv-x="529" 
d="M16 -6l71 81c-38 50 -52 113 -52 175c0 157 93 282 259 282l-9 -29c-12 7 -25 10 -38 10c-96 0 -108 -172 -108 -236c0 -43 4 -85 13 -126l212 245c-20 35 -52 57 -92 57c-33 0 -71 -17 -71 -55h-21c0 63 74 85 125 85c38 0 76 -10 107 -32l77 89l23 -21l-76 -87
c48 -48 67 -118 67 -184c0 -144 -86 -258 -236 -258c-60 0 -117 18 -159 61l-69 -79zM379 365l-216 -251c17 -47 51 -96 107 -96c104 0 129 146 129 224c0 42 -5 84 -20 123z" />
    <glyph glyph-name="thorn" unicode="&#xfe;" horiz-adv-x="631" 
d="M304 398h-21c0 63 74 85 125 85c134 0 198 -114 198 -235c0 -115 -66 -258 -198 -258c-204 0 -116 398 -192 398c-20 0 -23 -25 -23 -40v-530c0 -38 -26 -60 -64 -60c-52 0 -85 37 -85 88v821c0 7 -4 12 -11 12c-12 0 -27 -6 -39 -9l-5 20c31 8 109 35 137 35
c11 0 22 -5 22 -18v-905c0 -6 2 -15 11 -15c12 0 13 24 13 31v530c0 31 1 140 49 140c98 0 15 -470 163 -470c94 0 118 157 118 224c0 79 -24 211 -127 211c-33 0 -71 -17 -71 -55z" />
    <glyph glyph-name="Lslash" unicode="&#x141;" horiz-adv-x="601" 
d="M90 -1l3 1h-3v276l-79 -71v42l79 70v353c0 40 -26 35 -55 35v21h125c15 0 34 -7 34 -26v-290l124 110v-42l-124 -111l-1 -339h115c97 0 196 26 225 130l73 -40c-56 -103 -199 -119 -304 -119h-212z" />
    <glyph glyph-name="lslash" unicode="&#x142;" horiz-adv-x="298" 
d="M13 217v41l64 53v359c0 7 -5 12 -12 12c-11 0 -27 -6 -38 -9l-6 20c32 8 111 35 138 35c11 0 21 -5 21 -18v-312l24 20v308h21v-290l62 51v-41l-62 -51v-335c0 -38 -26 -60 -63 -60c-52 0 -85 38 -85 88v182zM180 358v-313c0 -6 3 -16 11 -16c12 0 13 23 13 31v318z" />
    <glyph glyph-name="OE" unicode="&#x152;" horiz-adv-x="941" 
d="M241 66l-19 -5c-46 86 -61 240 -61 335c0 130 27 282 191 282c78 0 132 -52 164 -120c16 93 95 181 194 181c85 0 140 -68 140 -149h-21c0 53 -36 121 -96 121c-81 0 -116 -121 -116 -185c0 -15 2 -32 5 -48c21 5 43 7 64 7c51 0 145 -14 145 -82c0 -61 -70 -85 -120 -85
c-48 0 -94 18 -130 49c-16 -38 -20 -81 -20 -123c0 -81 26 -224 133 -224c112 0 91 179 162 179c63 0 76 -121 76 -165h-21c0 27 -13 65 -46 65c-52 0 -70 -107 -197 -107c-73 0 -138 36 -174 100c-47 -73 -116 -115 -204 -115c-193 0 -264 187 -264 353
c0 197 99 398 321 398l-8 -29c-17 8 -35 13 -54 13c-137 0 -155 -254 -155 -347c0 -100 20 -360 165 -360c138 0 157 238 157 333c0 78 -15 311 -132 311c-139 0 -138 -210 -138 -307c0 -87 25 -196 59 -276zM635 434c19 -43 60 -87 110 -87c31 0 65 20 65 54
c0 44 -54 55 -88 55c-30 0 -61 -6 -87 -22z" />
    <glyph glyph-name="oe" unicode="&#x153;" horiz-adv-x="822" 
d="M192 398h-20c0 63 73 85 124 85c63 0 119 -27 154 -79c51 56 127 79 201 79c27 0 139 -9 139 -50c0 -59 -240 -232 -285 -264c12 -67 48 -151 127 -151c97 0 95 104 133 104c36 0 41 -73 41 -96l-42 -24c7 21 12 44 12 66c0 7 -1 32 -15 32c-29 0 -37 -110 -153 -110
c-67 0 -126 33 -164 88c-45 -59 -113 -88 -186 -88c-153 0 -232 116 -232 260c0 157 94 282 259 282l-8 -29c-13 7 -25 10 -39 10c-95 0 -108 -172 -108 -236c0 -80 19 -259 131 -259c104 0 129 146 129 224c0 79 -24 211 -127 211c-33 0 -71 -17 -71 -55zM503 183
c58 40 194 146 194 224c0 38 -35 57 -69 57c-104 0 -129 -143 -129 -222c0 -19 2 -39 4 -59z" />
    <glyph glyph-name="florin" unicode="&#x192;" horiz-adv-x="419" 
d="M224 404l-63 -356l107 46l6 -17c-38 -16 -78 -32 -116 -49c-23 -166 -170 -244 -327 -244c-16 0 -113 3 -113 29c0 33 297 168 331 184c2 4 66 375 71 407h-109l7 31h1c38 15 78 32 116 49c23 166 166 244 324 244c17 0 114 -3 114 -29c0 -33 -295 -169 -329 -184
c-6 -12 -12 -67 -14 -80h186l-6 -31h-186zM387 699c-78 0 -124 -101 -139 -164c21 9 214 99 214 120c0 25 -56 44 -75 44zM62 435h64l5 30c-23 -9 -46 -20 -69 -30zM-96 -187c78 0 124 101 140 164c-21 -9 -215 -100 -215 -121c0 -24 55 -43 75 -43z" />
    <glyph glyph-name="circumflex" unicode="&#x2c6;" horiz-adv-x="329" 
d="M37 550h-21l94 178h109l93 -178h-20l-127 128z" />
    <glyph glyph-name="caron" unicode="&#x2c7;" horiz-adv-x="301" 
d="M205 550h-109l-94 178h21l128 -128l127 128h20z" />
    <glyph glyph-name="breve" unicode="&#x2d8;" horiz-adv-x="300" 
d="M18 692h21c7 -59 63 -84 116 -84c55 0 98 25 105 84h21c-5 -77 -54 -136 -134 -136c-81 0 -125 59 -129 136z" />
    <glyph glyph-name="dotaccent" unicode="&#x2d9;" horiz-adv-x="136" 
d="M16 676c0 28 24 52 52 52s52 -24 52 -52s-24 -52 -52 -52c-29 0 -52 23 -52 52z" />
    <glyph glyph-name="ring" unicode="&#x2da;" horiz-adv-x="241" 
d="M121 530c-59 0 -99 40 -99 99s40 99 99 99c58 0 98 -41 98 -99s-40 -99 -98 -99zM121 697c-41 0 -68 -27 -68 -68c0 -40 27 -67 68 -67c40 0 66 28 66 67c0 40 -26 68 -66 68z" />
    <glyph glyph-name="ogonek" unicode="&#x2db;" horiz-adv-x="89" 
d="M83 -147l14 -15c-24 -31 -63 -56 -103 -56c-41 0 -68 26 -68 66c0 77 84 158 141 200l11 -18c-40 -29 -90 -97 -90 -149c0 -28 25 -43 51 -43c16 0 32 6 44 15z" />
    <glyph glyph-name="tilde" unicode="&#x2dc;" horiz-adv-x="383" 
d="M41 545h-21c0 51 18 137 84 137c63 0 122 -54 186 -54c42 0 51 34 52 70h21c-4 -58 -32 -135 -102 -135c-58 0 -126 56 -175 56c-40 0 -45 -44 -45 -74z" />
    <glyph glyph-name="hungarumlaut" unicode="&#x2dd;" horiz-adv-x="368" 
d="M219 550l52 178h104l-135 -178h-21zM18 550l52 178h104l-135 -178h-21z" />
    <glyph glyph-name="endash" unicode="&#x2013;" horiz-adv-x="504" 
d="M494 227h-484v31h484v-31z" />
    <glyph glyph-name="emdash" unicode="&#x2014;" horiz-adv-x="1066" 
d="M1055 227h-1045v31h1045v-31z" />
    <glyph glyph-name="quoteleft" unicode="&#x2018;" horiz-adv-x="194" 
d="M140 728v-21c-41 -14 -68 -51 -68 -95c0 -18 4 -36 14 -51c11 7 22 10 35 10c29 0 51 -20 51 -50c0 -35 -31 -54 -63 -54c-58 0 -83 55 -83 106c0 72 44 135 114 155z" />
    <glyph glyph-name="quoteright" unicode="&#x2019;" horiz-adv-x="192" 
d="M52 467v21c42 14 69 51 69 95c0 18 -4 36 -15 51c-10 -7 -21 -10 -34 -10c-29 0 -51 20 -51 50c0 35 30 54 62 54c59 0 84 -55 84 -106c0 -72 -44 -135 -115 -155z" />
    <glyph glyph-name="quotesinglbase" unicode="&#x201a;" horiz-adv-x="179" 
d="M48 -167v20c42 15 69 51 69 96c0 18 -4 35 -15 51c-10 -7 -21 -10 -34 -10c-29 0 -51 19 -51 50c0 35 30 54 62 54c59 0 84 -55 84 -107c0 -71 -44 -135 -115 -154z" />
    <glyph glyph-name="quotereversed" unicode="&#x201b;" horiz-adv-x="192" 
d="M139 488v-21c-70 20 -114 83 -114 155c0 51 25 106 83 106c32 0 63 -19 63 -54c0 -30 -22 -50 -51 -50c-13 0 -24 3 -35 10c-10 -15 -14 -33 -14 -51c0 -44 27 -81 68 -95z" />
    <glyph glyph-name="quotedblleft" unicode="&#x201c;" horiz-adv-x="402" 
d="M348 728v-21c-41 -14 -68 -51 -68 -95c0 -18 4 -36 14 -51c11 7 22 10 35 10c29 0 51 -20 51 -50c0 -35 -31 -54 -63 -54c-58 0 -83 55 -83 106c0 72 44 135 114 155zM140 728v-21c-41 -14 -68 -51 -68 -95c0 -18 4 -36 14 -51c11 7 22 10 35 10c29 0 51 -20 51 -50
c0 -35 -31 -54 -63 -54c-58 0 -83 55 -83 106c0 72 44 135 114 155z" />
    <glyph glyph-name="quotedblright" unicode="&#x201d;" horiz-adv-x="400" 
d="M52 467v21c42 14 69 51 69 95c0 18 -4 36 -15 51c-10 -7 -21 -10 -34 -10c-29 0 -51 20 -51 50c0 35 30 54 62 54c59 0 84 -55 84 -106c0 -72 -44 -135 -115 -155zM260 467v21c42 14 69 51 69 95c0 18 -4 36 -15 51c-10 -7 -22 -10 -34 -10c-29 0 -51 20 -51 50
c0 35 30 54 62 54c59 0 84 -55 84 -106c0 -72 -44 -135 -115 -155z" />
    <glyph glyph-name="quotedblbase" unicode="&#x201e;" horiz-adv-x="387" 
d="M256 -167v20c42 15 69 51 69 96c0 18 -4 35 -15 51c-10 -7 -22 -10 -34 -10c-29 0 -51 19 -51 50c0 35 30 54 62 54c59 0 84 -55 84 -107c0 -71 -44 -135 -115 -154zM48 -167v20c42 15 69 51 69 96c0 18 -4 35 -15 51c-10 -7 -21 -10 -34 -10c-29 0 -51 19 -51 50
c0 35 30 54 62 54c59 0 84 -55 84 -107c0 -71 -44 -135 -115 -154z" />
    <glyph glyph-name="dagger" unicode="&#x2020;" horiz-adv-x="511" 
d="M239 -218v674h-189v31h189v241h32v-241h190v-31h-190v-674h-32z" />
    <glyph glyph-name="daggerdbl" unicode="&#x2021;" horiz-adv-x="441" 
d="M203 -218v216h-188v31h188v459h-188v31h188v209h31v-209h192v-31h-192v-459h192v-31h-192v-216h-31z" />
    <glyph glyph-name="bullet" unicode="&#x2022;" horiz-adv-x="301" 
d="M25 347c0 70 57 125 126 125c67 0 125 -57 125 -125s-56 -124 -125 -124c-70 0 -126 54 -126 124z" />
    <glyph glyph-name="ellipsis" unicode="&#x2026;" horiz-adv-x="538" 
d="M416 42c0 28 24 52 52 52s52 -24 52 -52s-24 -52 -52 -52c-29 0 -52 23 -52 52zM217 42c0 28 24 52 52 52s52 -24 52 -52s-24 -52 -52 -52c-29 0 -52 23 -52 52zM17 42c0 28 24 52 52 52s52 -24 52 -52s-24 -52 -52 -52c-29 0 -52 23 -52 52z" />
    <glyph glyph-name="perthousand" unicode="&#x2030;" horiz-adv-x="1060" 
d="M129 -8l468 736h32l-468 -736h-32zM165 331c-104 0 -139 108 -139 194c0 88 36 203 143 203c104 0 137 -113 137 -199c0 -87 -36 -198 -141 -198zM166 346c74 0 85 129 85 180s-13 186 -87 186c-72 0 -84 -132 -84 -182c0 -51 12 -184 86 -184zM893 -13
c-104 0 -139 109 -139 195c0 87 36 203 142 203c104 0 138 -114 138 -199c0 -87 -36 -199 -141 -199zM581 -13c-104 0 -139 109 -139 195c0 87 36 203 142 203c104 0 138 -114 138 -199c0 -87 -36 -199 -141 -199zM894 3c74 0 85 129 85 180s-13 186 -87 186
c-73 0 -84 -132 -84 -182c0 -51 11 -184 86 -184zM582 3c74 0 85 129 85 180s-13 186 -87 186c-72 0 -84 -132 -84 -182c0 -51 12 -184 86 -184z" />
    <glyph glyph-name="guilsinglleft" unicode="&#x2039;" horiz-adv-x="269" 
d="M246 -3h-21l-208 266l208 255h21l-125 -255z" />
    <glyph glyph-name="guilsinglright" unicode="&#x203a;" horiz-adv-x="269" 
d="M44 -3h-21l125 266l-125 255h21l208 -255z" />
    <glyph glyph-name="fraction" unicode="&#x2044;" horiz-adv-x="600" 
d="M50 -8l468 736h32l-468 -736h-32z" />
    <glyph glyph-name="uni2070" unicode="&#x2070;" horiz-adv-x="342" 
d="M170 333c-103 0 -139 107 -139 193c0 88 38 202 143 202c102 0 137 -111 137 -197c0 -87 -36 -198 -141 -198zM171 347c73 0 85 128 85 179s-13 186 -87 186c-72 0 -83 -130 -83 -180s12 -185 85 -185z" />
    <glyph glyph-name="uni2074" unicode="&#x2074;" horiz-adv-x="305" 
d="M180 482v-51c-25 0 -128 -4 -146 16c-6 8 -6 18 -6 26c0 132 48 254 198 254c5 0 18 0 18 -7v-356c0 -4 1 -8 7 -8s6 13 6 16v353h11v-353c0 -19 -13 -32 -33 -32c-27 0 -45 21 -45 47v269c0 18 -13 21 -29 21c-88 0 -111 -101 -111 -171c0 -33 40 -24 64 -24h66z" />
    <glyph glyph-name="Euro" unicode="&#x20ac;" horiz-adv-x="592" 
d="M300 78l-20 -4c-33 60 -49 149 -56 216h-31c7 -88 41 -272 161 -272c76 0 115 77 133 140l73 -40c-44 -82 -119 -128 -211 -128c-171 0 -250 149 -262 300h-69l10 31h57c0 24 1 49 2 73h-69l10 31h62c22 163 123 315 301 315c60 0 162 -23 180 -91l-103 -13
c-18 19 -49 31 -76 31c-104 0 -143 -163 -149 -242h235l-11 -31h-226c0 -24 0 -49 2 -73h235l-11 -31h-221c9 -72 26 -145 54 -212zM190 425h32c10 120 64 261 206 261l9 -1h4c-23 25 -55 40 -89 40c-131 0 -158 -204 -162 -300zM190 321h31c-2 24 -1 49 -1 73h-31v-20
c0 -17 0 -35 1 -53z" />
    <glyph glyph-name="trademark" unicode="&#x2122;" horiz-adv-x="1116" 
d="M74 675l-24 35c66 27 208 67 279 67c53 0 81 -43 106 -83l-10 -10c-26 30 -66 49 -107 49c-7 0 -14 0 -21 -1v-412c0 -25 -17 -38 -41 -38c-33 0 -54 24 -54 56v378c-44 -11 -87 -22 -128 -41zM489 731v13h79c9 0 22 -5 22 -16v-418c0 -4 2 -9 7 -9c8 0 8 14 8 19v74
l1 147v74c0 79 40 138 124 138c46 0 104 -21 104 -75v-368c0 -4 1 -9 6 -9c9 0 9 14 9 19v295c0 79 46 138 129 138c45 0 98 -22 98 -75v-396h-65v395c0 34 -29 52 -60 52c-63 0 -89 -59 -89 -114v-295c0 -25 -16 -38 -40 -38c-33 0 -54 24 -54 56v339c0 35 -31 56 -64 56
c-63 0 -85 -65 -85 -118v-295c0 -25 -17 -38 -41 -38c-33 0 -54 24 -54 56v370c0 26 -16 23 -35 23zM267 728v-418c0 -4 2 -9 8 -9c7 0 8 14 8 19v410c-5 -2 -10 0 -16 -2z" />
    <glyph glyph-name="minus" unicode="&#x2212;" horiz-adv-x="504" 
d="M494 331h-484v31h484v-31z" />
    <glyph glyph-name="uniF000" unicode="&#xf000;" 
d="M2 154h21c1 -31 1 -64 43 -64c87 0 141 132 162 200c-41 25 -66 65 -91 104l15 15c24 -28 56 -48 90 -61c10 45 15 90 15 136c0 59 -12 178 -93 178c-14 0 -29 -4 -42 -9l-12 16c44 43 116 71 177 71c189 0 252 -201 252 -357l19 9l38 -55c-19 -7 -38 -16 -57 -23v-228
c0 -137 21 -251 186 -251c109 0 256 39 318 135l74 -48c-63 -94 -247 -109 -351 -109c-203 0 -331 53 -331 273v195c-35 -10 -71 -17 -106 -17c-21 0 -42 3 -62 9c-16 -82 -76 -283 -183 -283c-74 0 -78 112 -82 164zM435 344v47c0 110 -39 317 -184 317
c-32 0 -62 -11 -88 -26c108 4 123 -158 123 -235c0 -35 -2 -72 -7 -108c22 -4 44 -6 67 -6c30 0 60 4 89 11z" />
    <glyph glyph-name="uniF001" unicode="&#xf001;" horiz-adv-x="597" 
d="M-121 -78l74 48c62 -96 209 -135 318 -135c163 0 186 112 186 249c-42 -59 -105 -94 -179 -94c-185 0 -251 197 -251 352c0 186 92 398 306 398c61 0 162 -23 180 -91l-103 -13c-19 19 -49 31 -77 31c-118 0 -150 -202 -150 -287c0 -96 22 -214 59 -302l-20 -4
c-42 78 -60 207 -60 294c0 127 44 318 204 318c6 0 11 -1 17 -1c-22 25 -55 40 -89 40c-146 0 -163 -247 -163 -347c0 -99 19 -360 164 -360c124 0 162 173 162 269v96c0 40 -27 35 -55 35v21h125c15 0 34 -7 34 -26v-327c0 -220 -128 -273 -332 -273
c-103 0 -288 15 -350 109z" />
    <glyph glyph-name="uniF002" unicode="&#xf002;" horiz-adv-x="621" 
d="M466 319h-242c-15 0 -25 -10 -25 -25v-234c0 -38 -26 -60 -64 -60c-52 0 -85 38 -85 88v582c0 40 -26 35 -55 35v21h125c15 0 34 -7 34 -26v-655c0 -6 2 -16 11 -16c12 0 13 24 13 31v286c0 15 10 25 25 25h263v299c0 40 -26 35 -55 35v21h125c15 0 34 -7 34 -26v-614
c0 -137 22 -251 186 -251c109 0 256 39 318 135l74 -48c-62 -94 -246 -109 -350 -109c-381 0 -332 200 -332 506z" />
    <glyph glyph-name="uniF003" unicode="&#xf003;" horiz-adv-x="206" 
d="M-527 -78l74 48c62 -96 209 -135 318 -135c164 0 186 114 186 251v584c0 40 -27 35 -55 35v21h125c15 0 34 -7 34 -26v-614c0 -220 -128 -273 -332 -273c-104 0 -288 15 -350 109z" />
    <glyph glyph-name="uniF004" unicode="&#xf004;" horiz-adv-x="206" 
d="M659 -30l74 -48c-62 -94 -246 -109 -350 -109c-204 0 -332 53 -332 273v584c0 40 -27 35 -55 35v21h125c15 0 34 -7 34 -26v-614c0 -137 22 -251 186 -251c109 0 256 39 318 135z" />
    <glyph glyph-name="uniF005" unicode="&#xf005;" horiz-adv-x="968" 
d="M-5 705v21h125c15 0 34 -7 34 -26v-655c0 -6 2 -16 11 -16c12 0 13 24 13 31c0 154 1 309 1 463c0 124 63 217 195 217c71 0 163 -33 163 -118v-577c0 -6 2 -16 10 -16c13 0 14 24 14 31v463c0 124 73 217 201 217c72 0 156 -35 156 -118v-536c0 -137 22 -251 187 -251
c109 0 255 39 318 135l74 -48c-63 -94 -247 -109 -351 -109c-204 0 -332 53 -332 273v534c0 55 -43 82 -94 82c-99 0 -138 -95 -138 -180v-462c0 -38 -26 -60 -64 -60c-52 0 -85 38 -85 88v532c0 56 -47 88 -100 88c-101 0 -133 -102 -133 -186l-1 -462
c0 -38 -26 -60 -64 -60c-52 0 -85 38 -85 88v582c0 40 -26 35 -55 35z" />
    <glyph glyph-name="uniF006" unicode="&#xf006;" horiz-adv-x="637" 
d="M-5 705v21h125c15 0 34 -7 34 -26v-655c0 -6 2 -16 11 -16c12 0 13 24 13 31v463c0 138 98 217 231 217c72 0 179 -29 179 -118v-536c0 -137 22 -251 186 -251c109 0 256 39 318 135l74 -48c-62 -94 -247 -109 -350 -109c-204 0 -332 53 -332 273v534
c0 63 -64 88 -118 88c-108 0 -167 -84 -167 -186v-462c0 -38 -26 -60 -64 -60c-52 0 -85 38 -85 88v582c0 40 -27 35 -55 35z" />
    <glyph glyph-name="uniF007" unicode="&#xf007;" horiz-adv-x="537" 
d="M302 600l-2 21c22 1 97 -1 97 31c0 44 -141 54 -173 54c-36 0 -133 -10 -133 -60c0 -59 135 -69 177 -69c14 0 31 0 45 4l7 -53c-65 2 -271 32 -271 119c0 73 143 80 194 80c44 0 216 -15 216 -83c0 -51 -124 -43 -157 -44zM442 291l25 -11v203h21l-1 -212l23 -10l-8 -17
l-14 7v-191c0 -38 -26 -60 -63 -60c-35 0 -68 17 -86 47c-33 -42 -78 -57 -130 -57c-105 0 -191 66 -191 176c0 128 106 201 226 201c-24 13 -123 59 -123 93c0 26 101 30 116 30c82 0 206 -23 206 -127c0 -24 -1 -48 -1 -72zM329 344v59c0 33 -21 65 -57 65
c-23 0 -47 -17 -47 -42c0 -34 79 -69 104 -82zM335 57c-13 30 -6 213 -6 257c-17 19 -44 24 -68 24c-92 0 -139 -77 -139 -162c0 -80 43 -158 131 -158c34 0 61 12 82 39zM443 271v-226c0 -6 2 -16 11 -16c11 0 13 23 13 31l-1 200c-7 4 -14 8 -23 11z" />
    <glyph glyph-name="uniF008" unicode="&#xf008;" horiz-adv-x="552" 
d="M236 80h20c-1 -32 0 -55 40 -55c103 0 127 132 127 211c0 85 -27 225 -137 225c-96 0 -98 -123 -98 -193c0 -44 3 -89 3 -133c0 -41 2 -140 -59 -140c-65 0 -91 83 -91 135v453c-27 1 -55 4 -82 7l2 20c27 -3 53 -4 80 -6c1 123 51 232 189 232c73 0 171 -37 171 -124
c0 -109 -178 -124 -256 -129v-453c0 -8 3 -39 19 -39c13 0 12 34 12 39c0 47 -5 94 -5 139c0 100 18 220 144 220c140 0 212 -132 212 -258c0 -122 -64 -235 -198 -235c-58 0 -93 23 -93 84zM145 604c62 2 225 13 225 101c0 55 -61 90 -110 90c-94 0 -115 -99 -115 -174v-17
z" />
    <glyph glyph-name="uniF009" unicode="&#xf009;" horiz-adv-x="444" 
d="M301 600l-2 21c21 1 96 -1 96 31c0 44 -140 54 -172 54c-37 0 -133 -10 -133 -60c0 -59 135 -69 176 -69c15 0 32 0 46 4l6 -53c-64 2 -270 32 -270 119c0 73 142 80 193 80c45 0 217 -15 217 -83c0 -51 -124 -43 -157 -44zM436 26l-42 -24c6 21 12 44 12 66
c0 7 -1 32 -15 32c-29 0 -37 -110 -153 -110c-140 0 -213 131 -213 258c0 121 64 235 198 235c51 0 124 -22 124 -85h-20c0 38 -38 55 -71 55c-103 0 -127 -132 -127 -211c0 -81 26 -224 133 -224c97 0 95 104 133 104c36 0 41 -73 41 -96z" />
    <glyph glyph-name="uniF00A" unicode="&#xf00a;" horiz-adv-x="573" 
d="M386 120v463c-78 5 -256 20 -256 129c0 87 98 124 171 124c138 0 188 -109 189 -232c27 2 53 3 80 6l2 -20c-27 -3 -55 -6 -82 -7v-538c0 -6 2 -16 10 -16c13 0 14 24 14 31v339h21v-339c0 -38 -26 -60 -64 -60c-53 0 -85 51 -85 99c-30 -17 -36 -109 -148 -109
c-140 0 -213 131 -213 258c0 121 64 235 198 235c51 0 124 -22 124 -85h-20c0 38 -38 55 -71 55c-103 0 -127 -132 -127 -211c0 -81 26 -224 133 -224c91 0 92 83 124 102zM386 604c0 78 -13 191 -114 191c-50 0 -111 -35 -111 -90c0 -88 164 -99 225 -101z" />
    <glyph glyph-name="uniF00B" unicode="&#xf00b;" horiz-adv-x="451" 
d="M303 600l-2 21c22 1 96 -1 96 31c0 44 -140 54 -172 54c-37 0 -133 -10 -133 -60c0 -59 135 -69 176 -69c15 0 32 0 46 4l6 -53c-64 2 -270 32 -270 119c0 73 143 80 193 80c45 0 217 -15 217 -83c0 -51 -124 -43 -157 -44zM435 26l-42 -24c6 21 12 44 12 66
c0 7 -1 32 -15 32c-29 0 -37 -110 -153 -110c-140 0 -213 131 -213 258c0 151 111 235 256 235c27 0 139 -9 139 -50c0 -59 -240 -232 -285 -264c12 -67 48 -151 127 -151c97 0 95 104 133 104c36 0 41 -73 41 -96zM132 183c57 40 194 146 194 224c0 38 -35 57 -69 57
c-104 0 -129 -143 -129 -222c0 -19 2 -39 4 -59z" />
    <glyph glyph-name="uniF00C" unicode="&#xf00c;" horiz-adv-x="565" 
d="M347 600l-2 21c22 1 97 -1 97 31c0 44 -140 54 -173 54c-36 0 -133 -10 -133 -60c0 -59 136 -69 177 -69c15 0 31 0 46 4l6 -53c-64 2 -270 32 -270 119c0 73 142 80 193 80c45 0 216 -15 216 -83c0 -51 -123 -43 -157 -44zM248 -48h20v-121c0 -21 18 -31 38 -31
c98 0 111 178 111 245v303c0 15 -4 40 -24 40c-19 0 -23 -25 -26 -39c-16 -107 29 -359 -140 -359c-134 0 -202 140 -202 258c0 121 64 235 198 235c51 0 124 -22 124 -85h-20c0 38 -39 55 -71 55c-103 0 -127 -132 -127 -211c0 -80 26 -224 131 -224c169 0 -43 406 227 466
c2 0 4 1 6 1c20 0 28 -20 28 -37v-403c0 -117 -45 -274 -187 -274c-38 0 -86 15 -86 60v121z" />
    <glyph glyph-name="uniF00D" unicode="&#xf00d;" horiz-adv-x="565" 
d="M328 -34l-8 -51c-15 -8 -36 -8 -52 -8c-64 0 -129 8 -193 8c-35 0 -141 1 -141 -52c0 -80 206 -92 259 -92c131 0 224 27 224 174v403c0 15 -4 40 -24 40c-19 0 -23 -25 -26 -39c-17 -107 29 -359 -141 -359c-134 0 -201 140 -201 258c0 121 63 235 197 235
c51 0 125 -22 125 -85h-21c0 38 -38 55 -70 55c-103 0 -127 -132 -127 -211c0 -80 26 -224 131 -224c168 0 -43 406 226 466c2 0 5 1 7 1c19 0 28 -20 28 -37v-483c0 -192 -127 -235 -299 -235c-75 0 -319 16 -319 127c0 121 342 68 425 109z" />
    <glyph glyph-name="uniF00E" unicode="&#xf00e;" horiz-adv-x="535" 
d="M-8 674l-5 20c31 8 109 35 137 35c11 0 22 -5 22 -18v-666c0 -6 2 -16 11 -16c12 0 13 24 13 31v339c0 67 111 84 159 84c60 0 163 -21 163 -99v-298c0 -137 22 -251 187 -251c109 0 255 39 318 135l74 -48c-63 -94 -247 -109 -351 -109c-204 0 -332 53 -332 273v310
c0 47 -61 57 -96 57c-34 0 -101 -10 -101 -55v-338c0 -38 -26 -60 -64 -60c-52 0 -85 38 -85 88v583c0 7 -4 12 -11 12c-12 0 -27 -6 -39 -9z" />
    <glyph glyph-name="uniF00F" unicode="&#xf00f;" horiz-adv-x="534" 
d="M388 0v396c0 47 -61 57 -96 57c-33 0 -101 -10 -101 -55v-338c0 -38 -26 -60 -64 -60c-52 0 -85 38 -85 88v495c-27 1 -55 4 -82 7l2 20c27 -3 53 -4 80 -6c1 123 51 232 189 232c73 0 171 -37 171 -124c0 -109 -178 -124 -256 -129v-538c0 -6 2 -16 11 -16
c12 0 13 24 13 31v339c0 67 111 84 159 84c61 0 163 -21 163 -99v-384h-104zM146 604c62 2 225 13 225 101c0 55 -61 90 -110 90c-94 0 -115 -99 -115 -174v-17z" />
    <glyph glyph-name="uniF010" unicode="&#xf010;" horiz-adv-x="535" 
d="M568 -47h21v-162c0 -48 -52 -72 -93 -72c-59 0 -108 38 -108 99v578c0 47 -61 57 -96 57c-34 0 -101 -10 -101 -55v-338c0 -38 -26 -60 -64 -60c-52 0 -85 38 -85 88v583c0 7 -4 12 -11 12c-12 0 -27 -6 -39 -9l-5 20c31 8 109 35 137 35c12 0 22 -5 22 -18v-666
c0 -6 2 -16 11 -16c12 0 13 23 13 31v339c0 67 111 84 159 84c60 0 163 -21 163 -99v-567c0 -24 7 -69 39 -69c21 0 37 23 37 43v162z" />
    <glyph glyph-name="uniF011" unicode="&#xf011;" horiz-adv-x="535" 
d="M589 -85l-8 51c83 -42 425 12 425 -109c0 -111 -244 -127 -319 -127c-172 0 -299 43 -299 235v431c0 47 -61 57 -96 57c-34 0 -101 -10 -101 -55v-338c0 -38 -26 -60 -64 -60c-52 0 -85 38 -85 88v583c0 7 -4 12 -11 12c-12 0 -27 -6 -39 -9l-5 20c31 8 109 35 137 35
c11 0 22 -5 22 -18v-666c0 -6 2 -16 11 -16c12 0 13 24 13 31v339c0 67 111 84 159 84c60 0 163 -21 163 -99v-439c0 -147 93 -174 224 -174c53 0 259 13 259 92c0 53 -105 52 -140 52c-65 0 -129 -8 -194 -8c-14 0 -38 0 -52 8z" />
    <glyph glyph-name="uniF012" unicode="&#xf012;" horiz-adv-x="503" 
d="M191 252v-192c0 -38 -26 -60 -64 -60c-52 0 -85 38 -85 88v495c-27 1 -55 4 -82 7l2 20c27 -3 53 -4 80 -6c1 123 51 232 189 232c73 0 171 -37 171 -124c0 -109 -178 -124 -256 -129v-538c0 -6 2 -16 11 -16c12 0 13 24 13 31v297c0 94 109 126 186 126
c20 0 136 -10 136 -40c0 -33 -192 -112 -220 -124l138 -265c6 -9 18 -13 27 -13c14 0 29 3 43 5l3 -20c-34 -6 -117 -24 -148 -24c-9 0 -22 4 -27 13zM146 604c62 2 225 13 225 101c0 55 -61 90 -110 90c-94 0 -115 -99 -115 -174v-17zM191 303c20 9 197 90 197 109
c0 24 -79 41 -95 41c-57 0 -102 -37 -102 -96v-54z" />
    <glyph glyph-name="uniF013" unicode="&#xf013;" horiz-adv-x="498" 
d="M308 15l-117 237v-192c0 -38 -26 -60 -64 -60c-52 0 -85 38 -85 88v495c-27 1 -55 4 -82 7l2 20c27 -3 53 -4 80 -6c1 123 51 232 189 232c73 0 171 -37 171 -124c0 -109 -178 -124 -256 -129v-538c0 -6 2 -16 11 -16c12 0 13 24 13 31v297c0 94 109 126 186 126
c20 0 136 -10 136 -40c0 -33 -192 -112 -220 -124l138 -265c72 -138 121 -283 284 -283c48 0 254 13 254 92c0 53 -105 52 -140 52c-65 0 -129 -8 -194 -8c-14 0 -38 0 -52 8l-8 51c83 -42 425 12 425 -109c0 -111 -244 -127 -311 -127c-200 0 -294 152 -360 285zM146 604
c62 2 225 13 225 101c0 55 -61 90 -110 90c-94 0 -115 -99 -115 -174v-17zM191 303c20 9 197 90 197 109c0 24 -79 41 -95 41c-57 0 -102 -37 -102 -96v-54z" />
    <glyph glyph-name="uniF014" unicode="&#xf014;" horiz-adv-x="497" 
d="M410 54c64 -122 157 -219 276 -219c75 0 221 39 284 135l74 -48c-63 -94 -191 -109 -297 -109c-242 0 -378 81 -439 202l-117 237v-192c0 -38 -26 -60 -64 -60c-52 0 -85 38 -85 88v495c-27 1 -55 4 -82 7l2 20c27 -3 53 -4 80 -6c1 123 51 232 189 232
c73 0 171 -37 171 -124c0 -109 -178 -124 -256 -129v-538c0 -6 2 -16 11 -16c12 0 13 24 13 31v297c0 94 109 126 186 126c20 0 136 -10 136 -40c0 -33 -192 -112 -220 -124zM146 604c62 2 225 13 225 101c0 55 -61 90 -110 90c-94 0 -115 -99 -115 -174v-17zM191 303
c20 9 197 90 197 109c0 24 -79 41 -95 41c-57 0 -102 -37 -102 -96v-54z" />
    <glyph glyph-name="uniF015" unicode="&#xf015;" horiz-adv-x="192" 
d="M651 -30l74 -48c-62 -94 -246 -109 -350 -109c-204 0 -332 53 -332 273v584c0 7 -4 12 -11 12c-12 0 -27 -6 -39 -9l-5 20c31 8 109 35 137 35c11 0 22 -5 22 -18v-624c0 -137 22 -251 186 -251c109 0 256 39 318 135z" />
    <glyph glyph-name="uniF016" unicode="&#xf016;" horiz-adv-x="906" 
d="M17 430l-5 19c31 9 109 36 137 36c11 0 22 -6 22 -18v-422c0 -6 2 -16 11 -16c12 0 13 24 13 31v339c0 67 111 84 159 84c60 0 163 -21 163 -99v-339c0 -6 3 -16 11 -16c12 0 13 24 13 31v339c0 67 112 84 159 84c61 0 164 -21 164 -99v-298c0 -137 22 -251 186 -251
c109 0 256 39 318 135l74 -48c-63 -94 -247 -109 -351 -109c-203 0 -331 53 -331 273v310c0 47 -62 57 -97 57c-33 0 -101 -10 -101 -55v-338c0 -38 -26 -60 -63 -60c-52 0 -86 38 -86 88v308c0 47 -61 57 -96 57c-34 0 -101 -10 -101 -55v-338c0 -38 -26 -60 -64 -60
c-52 0 -85 38 -85 88v338c0 8 -4 13 -11 13c-12 0 -27 -6 -39 -9z" />
    <glyph glyph-name="uniF017" unicode="&#xf017;" horiz-adv-x="905" 
d="M517 600l-2 21c22 1 97 -1 97 31c0 44 -140 54 -173 54c-36 0 -133 -10 -133 -60c0 -59 136 -69 177 -69c15 0 31 0 46 4l6 -53c-64 2 -270 32 -270 119c0 73 142 80 193 80c45 0 216 -15 216 -83c0 -51 -123 -43 -157 -44zM17 430l-5 19c31 9 109 36 137 36
c12 0 22 -6 22 -18v-422c0 -6 2 -16 11 -16c12 0 13 23 13 31v339c0 67 111 84 159 84c60 0 163 -21 163 -99v-339c0 -6 3 -16 11 -16c12 0 13 23 13 31v339c0 67 112 84 159 84c61 0 164 -21 164 -99v-384h-104v396c0 47 -62 57 -97 57c-33 0 -101 -10 -101 -55v-338
c0 -38 -26 -60 -63 -60c-52 0 -86 38 -86 88v308c0 47 -61 57 -96 57c-34 0 -101 -10 -101 -55v-338c0 -38 -26 -60 -64 -60c-52 0 -85 38 -85 88v338c0 8 -4 13 -11 13c-12 0 -27 -6 -39 -9z" />
    <glyph glyph-name="uniF018" unicode="&#xf018;" horiz-adv-x="906" 
d="M17 430l-5 19c31 9 109 36 137 36c12 0 22 -6 22 -18v-422c0 -6 2 -16 11 -16c12 0 13 23 13 31v339c0 67 111 84 159 84c60 0 163 -21 163 -99v-339c0 -6 3 -16 11 -16c12 0 13 23 13 31v339c0 67 112 84 159 84c61 0 164 -21 164 -99v-567c0 -24 6 -69 38 -69
c21 0 38 23 38 43v162h20v-162c0 -48 -52 -72 -93 -72c-58 0 -107 38 -107 99v578c0 47 -62 57 -97 57c-33 0 -101 -10 -101 -55v-338c0 -38 -26 -60 -63 -60c-52 0 -86 38 -86 88v308c0 47 -61 57 -96 57c-34 0 -101 -10 -101 -55v-338c0 -38 -26 -60 -64 -60
c-52 0 -85 38 -85 88v338c0 8 -4 13 -11 13c-12 0 -27 -6 -39 -9z" />
    <glyph glyph-name="uniF019" unicode="&#xf019;" horiz-adv-x="906" 
d="M17 430l-5 19c31 9 109 36 137 36c11 0 22 -6 22 -18v-422c0 -6 2 -16 11 -16c12 0 13 24 13 31v339c0 67 111 84 159 84c60 0 163 -21 163 -99v-339c0 -6 3 -16 11 -16c12 0 13 24 13 31v339c0 67 112 84 159 84c61 0 164 -21 164 -99v-439c0 -147 92 -174 223 -174
c53 0 259 13 259 92c0 53 -105 52 -140 52c-65 0 -129 -8 -194 -8c-14 0 -38 0 -52 8l-8 51c83 -42 425 12 425 -109c0 -111 -244 -127 -319 -127c-171 0 -298 43 -298 235v431c0 47 -62 57 -97 57c-33 0 -101 -10 -101 -55v-338c0 -38 -26 -60 -63 -60c-52 0 -86 38 -86 88
v308c0 47 -61 57 -96 57c-34 0 -101 -10 -101 -55v-338c0 -38 -26 -60 -64 -60c-52 0 -85 38 -85 88v338c0 8 -4 13 -11 13c-12 0 -27 -6 -39 -9z" />
    <glyph glyph-name="uniF01A" unicode="&#xf01a;" horiz-adv-x="560" 
d="M17 430l-5 19c31 9 109 36 137 36c11 0 22 -6 22 -18v-422c0 -6 2 -16 11 -16c12 0 13 24 13 31v339c0 67 111 84 159 84c60 0 163 -21 163 -99v-298c0 -137 22 -251 187 -251c109 0 255 39 318 135l74 -48c-63 -94 -247 -109 -351 -109c-204 0 -332 53 -332 273v310
c0 47 -61 57 -96 57c-34 0 -101 -10 -101 -55v-338c0 -38 -26 -60 -64 -60c-52 0 -85 38 -85 88v338c0 8 -4 13 -11 13c-12 0 -27 -6 -39 -9z" />
    <glyph glyph-name="uniF01B" unicode="&#xf01b;" horiz-adv-x="559" 
d="M335 600l-2 21c22 1 97 -1 97 31c0 44 -140 54 -173 54c-36 0 -133 -10 -133 -60c0 -59 136 -69 177 -69c15 0 31 0 46 4l6 -53c-64 2 -270 32 -270 119c0 73 142 80 193 80c45 0 216 -15 216 -83c0 -51 -123 -43 -157 -44zM413 0v396c0 47 -61 57 -96 57
c-34 0 -101 -10 -101 -55v-338c0 -38 -26 -60 -64 -60c-52 0 -85 38 -85 88v338c0 8 -4 13 -11 13c-12 0 -27 -6 -39 -9l-5 19c31 9 109 36 137 36c12 0 22 -6 22 -18v-422c0 -6 2 -16 11 -16c12 0 13 23 13 31v339c0 67 111 84 159 84c60 0 163 -21 163 -99v-384h-104z" />
    <glyph glyph-name="uniF01C" unicode="&#xf01c;" horiz-adv-x="560" 
d="M593 -47h21v-162c0 -48 -52 -72 -93 -72c-59 0 -108 38 -108 99v578c0 47 -61 57 -96 57c-34 0 -101 -10 -101 -55v-338c0 -38 -26 -60 -64 -60c-52 0 -85 38 -85 88v338c0 8 -4 13 -11 13c-12 0 -27 -6 -39 -9l-5 19c31 9 109 36 137 36c12 0 22 -6 22 -18v-422
c0 -6 2 -16 11 -16c12 0 13 23 13 31v339c0 67 111 84 159 84c60 0 163 -21 163 -99v-567c0 -24 7 -69 39 -69c21 0 37 23 37 43v162z" />
    <glyph glyph-name="uniF01D" unicode="&#xf01d;" horiz-adv-x="560" 
d="M614 -85l-8 51c83 -42 425 12 425 -109c0 -111 -244 -127 -319 -127c-172 0 -299 43 -299 235v431c0 47 -61 57 -96 57c-34 0 -101 -10 -101 -55v-338c0 -38 -26 -60 -64 -60c-52 0 -85 38 -85 88v338c0 8 -4 13 -11 13c-12 0 -27 -6 -39 -9l-5 19c31 9 109 36 137 36
c11 0 22 -6 22 -18v-422c0 -6 2 -16 11 -16c12 0 13 24 13 31v339c0 67 111 84 159 84c60 0 163 -21 163 -99v-439c0 -147 93 -174 224 -174c53 0 259 13 259 92c0 53 -105 52 -140 52c-65 0 -129 -8 -194 -8c-14 0 -38 0 -52 8z" />
    <glyph glyph-name="uniF01E" unicode="&#xf01e;" horiz-adv-x="518" 
d="M319 629l-2 21c22 1 97 -1 97 31c0 44 -140 54 -173 54c-36 0 -133 -10 -133 -60c0 -59 135 -69 177 -69c15 0 31 0 46 4l6 -53c-64 3 -270 32 -270 119c0 73 142 80 193 80c45 0 216 -14 216 -83c0 -51 -123 -43 -157 -44zM192 398h-20c0 63 73 85 124 85
c135 0 198 -114 198 -235c0 -144 -85 -258 -236 -258c-153 0 -232 116 -232 260c0 157 94 282 259 282l-8 -29c-13 7 -25 10 -39 10c-95 0 -108 -172 -108 -236c0 -80 19 -259 131 -259c104 0 129 146 129 224c0 79 -24 211 -127 211c-32 0 -71 -17 -71 -55z" />
    <glyph glyph-name="uniF01F" unicode="&#xf01f;" horiz-adv-x="518" 
d="M285 532l-8 -29c-13 7 -25 10 -39 10c-95 0 -108 -172 -108 -236c0 -70 10 -169 58 -224c31 23 67 57 67 99c0 84 -83 164 -83 246c0 63 73 85 124 85c135 0 198 -114 198 -235c0 -144 -85 -258 -236 -258c-153 0 -232 116 -232 260c0 157 94 282 259 282zM203 39
c16 -14 37 -21 58 -21c104 0 129 146 129 224c0 79 -24 211 -127 211c-33 0 -71 -17 -71 -55c0 -70 84 -159 84 -246c0 -49 -37 -85 -73 -113z" />
    <glyph glyph-name="uniF020" unicode="&#xf020;" horiz-adv-x="416" 
d="M252 600l-2 21c22 1 96 -1 96 31c0 44 -140 54 -172 54c-37 0 -133 -10 -133 -60c0 -59 135 -69 176 -69c15 0 32 0 46 4l6 -53c-64 2 -270 32 -270 119c0 73 143 80 193 80c45 0 217 -15 217 -83c0 -51 -124 -43 -157 -44zM78 2l-41 24c0 23 5 96 40 96
c39 0 35 -104 123 -104c51 0 91 36 91 88c0 97 -148 117 -207 173c-18 -10 -38 -17 -57 -26l-8 16c18 9 35 16 53 24c-14 18 -21 40 -21 62c0 104 122 135 205 135c23 0 116 -4 116 -40c0 -40 -197 -129 -226 -142c91 -37 249 -46 249 -177c0 -93 -78 -141 -164 -141
c-112 0 -121 110 -150 110c-13 0 -14 -25 -14 -32c0 -22 5 -45 11 -66zM81 377c0 -29 20 -48 44 -60c15 8 143 65 143 88c0 34 -65 45 -90 45c-45 0 -97 -23 -97 -73z" />
    <glyph glyph-name="uniF021" unicode="&#xf021;" horiz-adv-x="283" 
d="M8 435v31h73v96c0 7 -4 12 -12 12c-11 0 -27 -6 -38 -9l-5 19c31 9 109 36 137 36c10 0 22 -5 22 -18v-136h97v-31h-97v-349c0 -137 22 -251 186 -251c109 0 256 39 318 135l74 -48c-62 -94 -246 -109 -350 -109c-204 0 -332 53 -332 273v349h-73z" />
    <glyph glyph-name="uniF022" unicode="&#xf022;" horiz-adv-x="561" 
d="M17 430l-5 19c31 9 109 36 137 36c11 0 22 -6 22 -18v-381c0 -46 62 -57 97 -57c33 0 101 11 101 55v340c0 39 26 61 63 61c52 0 85 -38 85 -89v-310c0 -137 22 -251 187 -251c109 0 255 39 318 135l74 -48c-63 -94 -247 -109 -351 -109c-204 0 -332 53 -332 273v354
c0 6 -2 16 -10 16c-12 0 -13 -24 -13 -32v-341c0 -66 -112 -83 -160 -83c-60 0 -163 21 -163 99v327c0 8 -4 13 -11 13c-12 0 -27 -6 -39 -9z" />
    <glyph glyph-name="uniF023" unicode="&#xf023;" horiz-adv-x="585" 
d="M314 600l-2 21c21 1 96 -1 96 31c0 44 -140 54 -172 54c-37 0 -133 -10 -133 -60c0 -59 135 -69 176 -69c15 0 32 0 46 4l6 -53c-64 2 -270 32 -270 119c0 73 142 80 193 80c45 0 217 -15 217 -83c0 -51 -124 -43 -157 -44zM17 430l-5 19c31 9 109 36 137 36
c12 0 22 -6 22 -18v-381c0 -46 62 -57 97 -57c33 0 101 11 101 55v340c0 39 26 61 63 61c52 0 85 -38 85 -89v-338c0 -7 5 -12 12 -12c11 0 27 6 38 9l6 -20c-32 -8 -110 -35 -138 -35c-11 0 -22 5 -22 18v422c0 6 -2 16 -10 16c-12 0 -13 -23 -13 -32v-341
c0 -66 -112 -83 -160 -83c-60 0 -163 21 -163 99v327c0 8 -4 13 -11 13c-12 0 -27 -6 -39 -9z" />
    <glyph glyph-name="uniF024" unicode="&#xf024;" horiz-adv-x="561" 
d="M593 -47h21v-162c0 -48 -52 -72 -93 -72c-59 0 -108 38 -108 99v622c0 6 -2 16 -10 16c-12 0 -13 -23 -13 -32v-341c0 -66 -112 -83 -160 -83c-60 0 -163 21 -163 99v327c0 8 -4 13 -11 13c-12 0 -27 -6 -39 -9l-5 19c31 9 109 36 137 36c12 0 22 -6 22 -18v-381
c0 -46 62 -57 97 -57c33 0 101 11 101 55v340c0 39 26 61 63 61c52 0 85 -38 85 -89v-579c0 -24 7 -69 39 -69c21 0 37 23 37 43v162z" />
    <glyph glyph-name="uniF025" unicode="&#xf025;" horiz-adv-x="560" 
d="M-165 -78l74 48c62 -96 209 -135 318 -135c164 0 186 114 186 251v354c0 6 -2 16 -10 16c-13 0 -14 -24 -14 -32v-341c0 -66 -111 -83 -159 -83c-60 0 -163 21 -163 99v327c0 8 -4 13 -11 13c-12 0 -28 -6 -39 -9l-5 19c31 9 109 36 137 36c11 0 22 -6 22 -18v-381
c0 -46 61 -57 97 -57c33 0 101 11 101 55v340c0 39 26 61 63 61c52 0 85 -38 85 -89v-310c0 -220 -128 -273 -332 -273c-103 0 -288 15 -350 109z" />
    <glyph glyph-name="uniF026" unicode="&#xf026;" horiz-adv-x="559" 
d="M324 -34l-8 -51c-13 -8 -37 -8 -52 -8c-64 0 -129 8 -193 8c-36 0 -141 1 -141 -52c0 -79 206 -92 259 -92c131 0 224 27 224 174v495c0 6 -2 16 -11 16c-12 0 -13 -24 -13 -32v-341c0 -66 -111 -83 -159 -83c-61 0 -164 21 -164 99v327c0 8 -4 13 -11 13
c-11 0 -27 -6 -38 -9l-6 19c32 9 110 36 138 36c10 0 21 -6 21 -18v-381c0 -46 62 -57 97 -57c33 0 101 11 101 55v340c0 39 26 61 63 61c52 0 86 -38 86 -89v-431c0 -192 -127 -235 -299 -235c-75 0 -319 16 -319 127c0 121 342 67 425 109z" />
    <glyph glyph-name="uniF027" unicode="&#xf027;" horiz-adv-x="727" 
d="M436 26l-42 -24c6 21 12 44 12 66c0 8 -1 32 -15 32c-29 0 -37 -110 -153 -110c-140 0 -213 131 -213 258c0 121 64 235 198 235c8 0 16 0 25 -1c-37 34 -68 83 -68 135c0 84 85 135 162 135c79 0 139 -59 139 -139c0 -8 -2 -16 -3 -23c29 7 90 30 117 30
c10 0 22 -5 22 -18v-136h96v-31h-96v-390c0 -6 2 -16 10 -16c13 0 14 24 14 31v225h20v-225c0 -38 -26 -60 -63 -60c-52 0 -85 38 -85 88v347h-73v31h73v96c0 7 -4 12 -12 12c-11 0 -27 -6 -38 -9l-5 18c11 71 -42 127 -112 127c-56 0 -145 -34 -145 -102
c0 -50 53 -116 94 -140c29 -17 52 -33 52 -70h-20c0 38 -38 55 -71 55c-103 0 -127 -132 -127 -211c0 -81 26 -224 133 -224c97 0 95 104 133 104c36 0 41 -73 41 -96z" />
    <glyph glyph-name="uniF028" unicode="&#xf028;" horiz-adv-x="750" 
d="M435 26l-42 -24c6 21 12 44 12 66c0 8 -1 32 -15 32c-29 0 -37 -110 -153 -110c-140 0 -213 131 -213 258c0 151 111 235 256 235c7 0 14 -1 22 -1c-47 32 -99 83 -99 143c0 81 91 127 162 127c79 0 138 -59 138 -139c0 -8 -1 -16 -2 -23c28 7 90 30 117 30
c10 0 22 -5 22 -18v-136h96v-31h-96v-390c0 -6 2 -16 10 -16c13 0 14 24 14 31v225h20v-225c0 -38 -26 -60 -63 -60c-52 0 -85 38 -85 88v347h-73v31h73v96c0 7 -4 12 -12 12c-11 0 -27 -6 -38 -9l-5 18c11 71 -42 127 -112 127c-52 0 -145 -32 -145 -95
c0 -52 87 -125 132 -141c17 -6 63 -15 63 -41c0 -59 -240 -232 -285 -264c12 -67 47 -151 127 -151c97 0 95 104 133 104c36 0 41 -73 41 -96zM132 183c57 40 194 146 194 224c0 38 -35 57 -69 57c-104 0 -129 -143 -129 -222c0 -19 2 -39 4 -59z" />
    <glyph glyph-name="s_t" unicode="&#xfb06;" horiz-adv-x="729" 
d="M77 2l-41 24c0 24 5 96 40 96c39 0 36 -104 123 -104c51 0 92 36 92 88c0 97 -149 117 -207 173c-19 -10 -39 -17 -58 -26l-8 16c4 2 9 4 13 6l27 12c4 2 9 4 13 6c-13 18 -21 40 -21 62c0 104 122 135 205 135c8 0 16 -1 24 -1c-47 30 -97 76 -97 136
c0 81 92 127 163 127c79 0 138 -59 138 -139c0 -8 -1 -16 -2 -23c28 7 89 30 116 30c11 0 22 -5 22 -18v-136h97v-31h-97v-390c0 -6 2 -16 10 -16c13 0 14 24 14 31v225h21v-225c0 -38 -26 -60 -64 -60c-52 0 -85 38 -85 88v347h-73v31h73v96c0 7 -4 12 -11 12
c-12 0 -27 -6 -39 -9l-5 18c11 71 -42 127 -111 127c-52 0 -146 -32 -146 -95c0 -58 92 -116 138 -137c13 -5 31 -11 31 -28c0 -40 -198 -129 -227 -142c91 -37 249 -46 249 -177c0 -93 -77 -141 -164 -141c-112 0 -120 110 -150 110c-13 0 -14 -24 -14 -32
c0 -22 5 -45 11 -66zM124 317c16 8 144 65 144 88c0 34 -66 45 -91 45c-45 0 -97 -23 -97 -73c0 -29 20 -48 44 -60z" />
    <glyph glyph-name="cedilla" unicode="&#xb8;" horiz-adv-x="89" 
d="M-61 -147c13 -9 29 -15 44 -15c26 0 51 15 51 43c0 52 -50 120 -89 149l10 18c57 -42 142 -123 142 -200c0 -40 -27 -66 -68 -66s-79 25 -103 56z" />
    <glyph glyph-name="dotlessi" unicode="&#x131;" horiz-adv-x="259" 
d="M17 430l-5 19c31 9 110 36 137 36c12 0 22 -6 22 -18v-422c0 -6 2 -16 11 -16c12 0 13 23 13 31v423h21v-423c0 -38 -26 -60 -64 -60c-52 0 -85 38 -85 88v338c0 8 -4 13 -11 13c-12 0 -27 -6 -39 -9z" />
    <glyph glyph-name="fi" unicode="&#xfb01;" horiz-adv-x="578" 
d="M8 435v31h70v204c0 7 -4 12 -12 12c-11 0 -27 -6 -38 -9l-5 20c31 8 109 35 137 35c11 0 22 -5 22 -18v-188c8 4 16 7 24 12v80c0 100 123 125 202 125c17 0 120 -4 120 -30c0 -38 -268 -168 -302 -185v-58h264v-421c0 -6 2 -16 10 -16c12 0 13 23 13 31v406h21v-406
c0 -38 -26 -60 -63 -60c-52 0 -85 38 -85 88v338c0 3 0 9 -5 9h-155v-375c0 -38 -26 -60 -63 -60c-52 0 -85 38 -85 88v347h-70zM226 544c22 10 198 99 198 123c0 26 -77 43 -96 43c-57 0 -102 -37 -102 -96v-70zM182 466h24v48l-24 -12v-36zM182 435v-390
c0 -6 2 -16 10 -16c13 0 14 23 14 31v375h-24z" />
    <glyph glyph-name="fl" unicode="&#xfb02;" horiz-adv-x="616" 
d="M8 424v32h70v214c0 7 -4 12 -12 12c-11 0 -27 -6 -38 -9l-5 20c31 8 109 35 137 35c11 0 22 -5 22 -18v-188c8 4 16 7 24 12v80c0 100 123 125 202 125c30 0 89 -4 114 -20c5 -1 6 -6 6 -10v-664c0 -6 2 -16 10 -16c13 0 14 23 14 31v666h21v-666c0 -38 -26 -60 -64 -60
c-52 0 -85 38 -85 88v540c-64 -37 -131 -71 -198 -104v-68h160v-32h-160v-364c0 -38 -26 -60 -63 -60c-52 0 -85 38 -85 88v336h-70zM226 544c22 10 198 99 198 123c0 26 -77 43 -96 43c-57 0 -102 -37 -102 -96v-70zM182 456h24v58l-24 -12v-46zM182 424v-379
c0 -6 2 -16 10 -16c13 0 14 23 14 31v364h-24z" />
    <glyph glyph-name="Agrave" unicode="&#xc0;" 
d="M360 758l-135 178h104l52 -178h-21zM2 154h21c2 -32 0 -64 43 -64c87 0 141 132 162 200c-41 25 -66 65 -91 104l15 15c24 -28 56 -48 90 -61c10 45 15 90 15 136c0 59 -12 178 -93 178c-14 0 -29 -4 -42 -9l-12 16c44 43 116 71 177 71c189 0 252 -201 252 -357l19 9
l38 -55c-19 -7 -38 -16 -57 -23v-314h-104v281c-35 -10 -70 -17 -106 -17c-21 0 -42 3 -62 9c-16 -82 -76 -283 -183 -283c-74 0 -78 112 -82 164zM435 344v47c0 110 -39 317 -184 317c-32 0 -62 -11 -88 -26c108 4 123 -158 123 -235c0 -35 -2 -72 -7 -108
c22 -4 44 -6 67 -6c30 0 60 4 89 11z" />
    <glyph glyph-name="Aacute" unicode="&#xc1;" 
d="M225 758l52 178h104l-135 -178h-21zM2 154h21c2 -32 0 -64 43 -64c87 0 141 132 162 200c-41 25 -66 65 -91 104l15 15c24 -28 56 -48 90 -61c10 45 15 90 15 136c0 59 -12 178 -93 178c-14 0 -29 -4 -42 -9l-12 16c44 43 116 71 177 71c189 0 252 -201 252 -357l19 9
l38 -55c-19 -7 -38 -16 -57 -23v-314h-104v281c-35 -10 -70 -17 -106 -17c-21 0 -42 3 -62 9c-16 -82 -76 -283 -183 -283c-74 0 -78 112 -82 164zM435 344v47c0 110 -39 317 -184 317c-32 0 -62 -11 -88 -26c108 4 123 -158 123 -235c0 -35 -2 -72 -7 -108
c22 -4 44 -6 67 -6c30 0 60 4 89 11z" />
    <glyph glyph-name="Acircumflex" unicode="&#xc2;" 
d="M176 758h-21l93 178h110l93 -178h-21l-126 128zM2 154h21c2 -32 0 -64 43 -64c87 0 141 132 162 200c-41 25 -66 65 -91 104l15 15c24 -28 56 -48 90 -61c10 45 15 90 15 136c0 59 -12 178 -93 178c-14 0 -29 -4 -42 -9l-12 16c44 43 116 71 177 71
c189 0 252 -201 252 -357l19 9l38 -55c-19 -7 -38 -16 -57 -23v-314h-104v281c-35 -10 -70 -17 -106 -17c-21 0 -42 3 -62 9c-16 -82 -76 -283 -183 -283c-74 0 -78 112 -82 164zM435 344v47c0 110 -39 317 -184 317c-32 0 -62 -11 -88 -26c108 4 123 -158 123 -235
c0 -35 -2 -72 -7 -108c22 -4 44 -6 67 -6c30 0 60 4 89 11z" />
    <glyph glyph-name="Atilde" unicode="&#xc3;" 
d="M152 753h-20c0 51 17 137 84 137c62 0 121 -54 186 -54c41 0 51 34 52 70h21c-5 -58 -33 -135 -102 -135c-58 0 -126 56 -176 56c-40 0 -45 -44 -45 -74zM2 154h21c2 -32 0 -64 43 -64c87 0 141 132 162 200c-41 25 -66 65 -91 104l15 15c24 -28 56 -48 90 -61
c10 45 15 90 15 136c0 59 -12 178 -93 178c-14 0 -29 -4 -42 -9l-12 16c44 43 116 71 177 71c189 0 252 -201 252 -357l19 9l38 -55c-19 -7 -38 -16 -57 -23v-314h-104v281c-35 -10 -70 -17 -106 -17c-21 0 -42 3 -62 9c-16 -82 -76 -283 -183 -283c-74 0 -78 112 -82 164z
M435 344v47c0 110 -39 317 -184 317c-32 0 -62 -11 -88 -26c108 4 123 -158 123 -235c0 -35 -2 -72 -7 -108c22 -4 44 -6 67 -6c30 0 60 4 89 11z" />
    <glyph glyph-name="Adieresis" unicode="&#xc4;" 
d="M325 832c0 28 24 52 52 52s52 -24 52 -52s-24 -52 -52 -52c-29 0 -52 23 -52 52zM177 832c0 28 24 52 52 52s52 -24 52 -52s-24 -52 -52 -52c-29 0 -52 23 -52 52zM2 154h21c2 -32 0 -64 43 -64c87 0 141 132 162 200c-41 25 -66 65 -91 104l15 15c24 -28 56 -48 90 -61
c10 45 15 90 15 136c0 59 -12 178 -93 178c-14 0 -29 -4 -42 -9l-12 16c44 43 116 71 177 71c189 0 252 -201 252 -357l19 9l38 -55c-19 -7 -38 -16 -57 -23v-314h-104v281c-35 -10 -70 -17 -106 -17c-21 0 -42 3 -62 9c-16 -82 -76 -283 -183 -283c-74 0 -78 112 -82 164z
M435 344v47c0 110 -39 317 -184 317c-32 0 -62 -11 -88 -26c108 4 123 -158 123 -235c0 -35 -2 -72 -7 -108c22 -4 44 -6 67 -6c30 0 60 4 89 11z" />
    <glyph glyph-name="Aring" unicode="&#xc5;" 
d="M304 768c-60 0 -99 40 -99 99s39 99 99 99c58 0 97 -41 97 -99s-39 -99 -97 -99zM304 935c-41 0 -68 -27 -68 -68c0 -40 27 -67 68 -67c40 0 66 28 66 67c0 40 -26 68 -66 68zM2 154h21c2 -32 0 -64 43 -64c87 0 141 132 162 200c-41 25 -66 65 -91 104l15 15
c24 -28 56 -48 90 -61c10 45 15 90 15 136c0 59 -12 178 -93 178c-14 0 -29 -4 -42 -9l-12 16c44 43 116 71 177 71c189 0 252 -201 252 -357l19 9l38 -55c-19 -7 -38 -16 -57 -23v-314h-104v281c-35 -10 -70 -17 -106 -17c-21 0 -42 3 -62 9c-16 -82 -76 -283 -183 -283
c-74 0 -78 112 -82 164zM435 344v47c0 110 -39 317 -184 317c-32 0 -62 -11 -88 -26c108 4 123 -158 123 -235c0 -35 -2 -72 -7 -108c22 -4 44 -6 67 -6c30 0 60 4 89 11z" />
    <glyph glyph-name="Ccedilla" unicode="&#xc7;" horiz-adv-x="516" 
d="M241 78l-19 -4c-43 78 -61 207 -61 294c0 127 44 318 204 318c6 0 11 -1 18 -1c-23 25 -55 40 -90 40c-145 0 -163 -247 -163 -347s20 -360 165 -360c76 0 116 77 133 140l73 -40c-43 -82 -118 -128 -211 -128h-22c40 -41 75 -92 75 -142c0 -40 -27 -66 -67 -66
c-41 0 -79 25 -103 56l13 15c13 -9 28 -15 44 -15c26 0 51 15 51 43c0 38 -26 83 -55 116c-145 37 -200 199 -200 345c0 186 93 398 307 398c60 0 161 -23 180 -91l-103 -13c-20 19 -49 31 -76 31c-119 0 -152 -201 -152 -287c0 -96 22 -214 59 -302z" />
    <glyph glyph-name="Dcroat" unicode="&#x110;" horiz-adv-x="617" 
d="M246 118l73 40c5 -35 33 -140 82 -140c74 0 81 264 81 310c0 84 -13 380 -144 380c-86 0 -110 -121 -110 -186v-138h181v-31h-181v-293c0 -38 -26 -60 -63 -60c-52 0 -85 38 -85 88v265h-68v31h68v286c0 40 -27 35 -55 35v21h124c16 0 35 -7 35 -26v-316h24v139
c0 100 48 217 164 217c175 0 214 -261 214 -389c0 -105 -29 -361 -178 -361c-73 0 -136 64 -162 128zM208 353h-24v-308c0 -6 2 -16 10 -16c13 0 14 23 14 31v293z" />
    <glyph glyph-name="Egrave" unicode="&#xc8;" horiz-adv-x="508" 
d="M311 758l-135 178h104l52 -178h-21zM498 34h-21c0 27 -12 65 -45 65c-52 0 -71 -107 -198 -107c-142 0 -211 126 -211 255c0 69 20 141 75 188c-13 27 -19 56 -19 85c0 106 85 219 198 219c84 0 139 -68 139 -149h-21c0 53 -35 121 -95 121c-81 0 -117 -121 -117 -185
c0 -15 2 -32 5 -48c21 5 43 7 65 7c51 0 144 -14 144 -82c0 -61 -69 -85 -119 -85c-48 0 -95 18 -130 49c-17 -38 -21 -81 -21 -123c0 -81 26 -224 133 -224c112 0 92 179 162 179c64 0 76 -121 76 -165zM202 434c19 -43 59 -87 109 -87c31 0 66 20 66 54
c0 44 -54 55 -89 55c-30 0 -60 -6 -86 -22z" />
    <glyph glyph-name="Eacute" unicode="&#xc9;" horiz-adv-x="508" 
d="M176 758l52 178h104l-135 -178h-21zM498 34h-21c0 27 -12 65 -45 65c-52 0 -71 -107 -198 -107c-142 0 -211 126 -211 255c0 69 20 141 75 188c-13 27 -19 56 -19 85c0 106 85 219 198 219c84 0 139 -68 139 -149h-21c0 53 -35 121 -95 121c-81 0 -117 -121 -117 -185
c0 -15 2 -32 5 -48c21 5 43 7 65 7c51 0 144 -14 144 -82c0 -61 -69 -85 -119 -85c-48 0 -95 18 -130 49c-17 -38 -21 -81 -21 -123c0 -81 26 -224 133 -224c112 0 92 179 162 179c64 0 76 -121 76 -165zM202 434c19 -43 59 -87 109 -87c31 0 66 20 66 54
c0 44 -54 55 -89 55c-30 0 -60 -6 -86 -22z" />
    <glyph glyph-name="Ecircumflex" unicode="&#xca;" horiz-adv-x="508" 
d="M127 758h-21l93 178h110l93 -178h-21l-126 128zM498 34h-21c0 27 -12 65 -45 65c-52 0 -71 -107 -198 -107c-142 0 -211 126 -211 255c0 69 20 141 75 188c-13 27 -19 56 -19 85c0 106 85 219 198 219c84 0 139 -68 139 -149h-21c0 53 -35 121 -95 121
c-81 0 -117 -121 -117 -185c0 -15 2 -32 5 -48c21 5 43 7 65 7c51 0 144 -14 144 -82c0 -61 -69 -85 -119 -85c-48 0 -95 18 -130 49c-17 -38 -21 -81 -21 -123c0 -81 26 -224 133 -224c112 0 92 179 162 179c64 0 76 -121 76 -165zM202 434c19 -43 59 -87 109 -87
c31 0 66 20 66 54c0 44 -54 55 -89 55c-30 0 -60 -6 -86 -22z" />
    <glyph glyph-name="Edieresis" unicode="&#xcb;" horiz-adv-x="508" 
d="M295 832c0 28 24 52 52 52s52 -24 52 -52s-24 -52 -52 -52c-29 0 -52 23 -52 52zM147 832c0 28 24 52 52 52s52 -24 52 -52s-24 -52 -52 -52c-29 0 -52 23 -52 52zM498 34h-21c0 27 -12 65 -45 65c-52 0 -71 -107 -198 -107c-142 0 -211 126 -211 255c0 69 20 141 75 188
c-13 27 -19 56 -19 85c0 106 85 219 198 219c84 0 139 -68 139 -149h-21c0 53 -35 121 -95 121c-81 0 -117 -121 -117 -185c0 -15 2 -32 5 -48c21 5 43 7 65 7c51 0 144 -14 144 -82c0 -61 -69 -85 -119 -85c-48 0 -95 18 -130 49c-17 -38 -21 -81 -21 -123
c0 -81 26 -224 133 -224c112 0 92 179 162 179c64 0 76 -121 76 -165zM202 434c19 -43 59 -87 109 -87c31 0 66 20 66 54c0 44 -54 55 -89 55c-30 0 -60 -6 -86 -22z" />
    <glyph glyph-name="Igrave" unicode="&#xcc;" horiz-adv-x="248" 
d="M181 758l-135 178h104l52 -178h-21zM-5 705v21h125c15 0 34 -7 34 -26v-655c0 -6 2 -16 11 -16c12 0 13 23 13 31v666h21v-666c0 -38 -26 -60 -64 -60c-52 0 -85 38 -85 88v582c0 39 -25 35 -55 35z" />
    <glyph glyph-name="Iacute" unicode="&#xcd;" horiz-adv-x="248" 
d="M46 758l52 178h104l-135 -178h-21zM-5 705v21h125c15 0 34 -7 34 -26v-655c0 -6 2 -16 11 -16c12 0 13 23 13 31v666h21v-666c0 -38 -26 -60 -64 -60c-52 0 -85 38 -85 88v582c0 39 -25 35 -55 35z" />
    <glyph glyph-name="Icircumflex" unicode="&#xce;" horiz-adv-x="248" 
d="M-3 758h-21l93 178h110l93 -178h-21l-126 128zM-5 705v21h125c15 0 34 -7 34 -26v-655c0 -6 2 -16 11 -16c12 0 13 23 13 31v666h21v-666c0 -38 -26 -60 -64 -60c-52 0 -85 38 -85 88v582c0 39 -25 35 -55 35z" />
    <glyph glyph-name="Idieresis" unicode="&#xcf;" horiz-adv-x="248" 
d="M145 832c0 28 24 52 52 52s52 -24 52 -52s-24 -52 -52 -52c-29 0 -52 23 -52 52zM-3 832c0 28 24 52 52 52s52 -24 52 -52s-24 -52 -52 -52c-29 0 -52 23 -52 52zM-5 705v21h125c15 0 34 -7 34 -26v-655c0 -6 2 -16 11 -16c12 0 13 23 13 31v666h21v-666
c0 -38 -26 -60 -64 -60c-52 0 -85 38 -85 88v582c0 39 -25 35 -55 35z" />
    <glyph glyph-name="Ntilde" unicode="&#xd1;" horiz-adv-x="637" 
d="M168 753h-21c0 51 18 137 84 137c63 0 122 -54 186 -54c42 0 51 34 52 70h21c-4 -58 -32 -135 -102 -135c-58 0 -126 56 -175 56c-40 0 -45 -44 -45 -74zM484 0v620c0 63 -64 88 -118 88c-108 0 -167 -84 -167 -186v-462c0 -38 -26 -60 -64 -60c-52 0 -85 38 -85 88v582
c0 40 -26 35 -55 35v21h125c15 0 34 -7 34 -26v-655c0 -6 2 -16 11 -16c12 0 13 24 13 31v463c0 138 98 217 231 217c72 0 179 -29 179 -118v-622h-104z" />
    <glyph glyph-name="Ograve" unicode="&#xd2;" horiz-adv-x="584" 
d="M349 758l-135 178h104l52 -178h-21zM241 66l-19 -5c-46 86 -61 240 -61 335c0 130 27 282 191 282c163 0 204 -205 204 -332c0 -167 -65 -369 -266 -369c-193 0 -264 187 -264 353c0 197 99 398 321 398l-8 -29c-17 8 -35 13 -54 13c-137 0 -155 -254 -155 -347
c0 -100 20 -360 165 -360c138 0 157 238 157 333c0 78 -15 311 -132 311c-139 0 -138 -210 -138 -307c0 -87 25 -196 59 -276z" />
    <glyph glyph-name="Oacute" unicode="&#xd3;" horiz-adv-x="584" 
d="M214 758l52 178h104l-135 -178h-21zM241 66l-19 -5c-46 86 -61 240 -61 335c0 130 27 282 191 282c163 0 204 -205 204 -332c0 -167 -65 -369 -266 -369c-193 0 -264 187 -264 353c0 197 99 398 321 398l-8 -29c-17 8 -35 13 -54 13c-137 0 -155 -254 -155 -347
c0 -100 20 -360 165 -360c138 0 157 238 157 333c0 78 -15 311 -132 311c-139 0 -138 -210 -138 -307c0 -87 25 -196 59 -276z" />
    <glyph glyph-name="Ocircumflex" unicode="&#xd4;" horiz-adv-x="584" 
d="M165 758h-21l93 178h110l93 -178h-21l-126 128zM241 66l-19 -5c-46 86 -61 240 -61 335c0 130 27 282 191 282c163 0 204 -205 204 -332c0 -167 -65 -369 -266 -369c-193 0 -264 187 -264 353c0 197 99 398 321 398l-8 -29c-17 8 -35 13 -54 13
c-137 0 -155 -254 -155 -347c0 -100 20 -360 165 -360c138 0 157 238 157 333c0 78 -15 311 -132 311c-139 0 -138 -210 -138 -307c0 -87 25 -196 59 -276z" />
    <glyph glyph-name="Otilde" unicode="&#xd5;" horiz-adv-x="584" 
d="M141 753h-20c0 51 17 137 84 137c62 0 121 -54 186 -54c41 0 51 34 52 70h21c-5 -58 -33 -135 -102 -135c-58 0 -126 56 -176 56c-40 0 -45 -44 -45 -74zM241 66l-19 -5c-46 86 -61 240 -61 335c0 130 27 282 191 282c163 0 204 -205 204 -332c0 -167 -65 -369 -266 -369
c-193 0 -264 187 -264 353c0 197 99 398 321 398l-8 -29c-17 8 -35 13 -54 13c-137 0 -155 -254 -155 -347c0 -100 20 -360 165 -360c138 0 157 238 157 333c0 78 -15 311 -132 311c-139 0 -138 -210 -138 -307c0 -87 25 -196 59 -276z" />
    <glyph glyph-name="Odieresis" unicode="&#xd6;" horiz-adv-x="584" 
d="M325 832c0 28 24 52 52 52s52 -24 52 -52s-24 -52 -52 -52c-29 0 -52 23 -52 52zM177 832c0 28 24 52 52 52s52 -24 52 -52s-24 -52 -52 -52c-29 0 -52 23 -52 52zM241 66l-19 -5c-46 86 -61 240 -61 335c0 130 27 282 191 282c163 0 204 -205 204 -332
c0 -167 -65 -369 -266 -369c-193 0 -264 187 -264 353c0 197 99 398 321 398l-8 -29c-17 8 -35 13 -54 13c-137 0 -155 -254 -155 -347c0 -100 20 -360 165 -360c138 0 157 238 157 333c0 78 -15 311 -132 311c-139 0 -138 -210 -138 -307c0 -87 25 -196 59 -276z" />
    <glyph glyph-name="Scaron" unicode="&#x160;" horiz-adv-x="533" 
d="M321 758h-109l-94 178h21l128 -128l127 128h21zM11 118l73 40c23 -81 93 -139 179 -139c102 0 146 83 146 176c0 134 -83 199 -192 257c-40 21 -82 40 -118 68c-22 -9 -44 -20 -67 -30l-9 19l60 26c-18 16 -28 39 -28 63c0 116 210 131 289 131c19 0 146 -1 146 -32
c0 -26 -179 -89 -202 -98c-45 -18 -90 -36 -134 -55c146 -74 359 -119 359 -326c0 -147 -111 -228 -251 -228c-96 0 -203 39 -251 128zM85 617c0 -28 25 -47 47 -61c75 33 170 65 241 101c3 1 13 7 13 11c0 16 -113 22 -130 22c-44 0 -171 -7 -171 -73z" />
    <glyph glyph-name="Ugrave" unicode="&#xd9;" horiz-adv-x="650" 
d="M382 758l-135 178h104l52 -178h-21zM635 23v-21h-125c-16 0 -34 7 -34 26v655c0 7 -2 16 -11 16c-12 0 -13 -24 -13 -31v-463c0 -124 -81 -218 -208 -218c-175 0 -202 187 -202 324v417h104v-415c0 -90 4 -293 136 -293c100 0 149 98 149 186v462c0 38 26 60 63 60
c52 0 86 -37 86 -88v-582c0 -40 26 -35 55 -35z" />
    <glyph glyph-name="Uacute" unicode="&#xda;" horiz-adv-x="650" 
d="M247 758l52 178h104l-135 -178h-21zM635 23v-21h-125c-16 0 -34 7 -34 26v655c0 7 -2 16 -11 16c-12 0 -13 -24 -13 -31v-463c0 -124 -81 -218 -208 -218c-175 0 -202 187 -202 324v417h104v-415c0 -90 4 -293 136 -293c100 0 149 98 149 186v462c0 38 26 60 63 60
c52 0 86 -37 86 -88v-582c0 -40 26 -35 55 -35z" />
    <glyph glyph-name="Ucircumflex" unicode="&#xdb;" horiz-adv-x="650" 
d="M198 758h-21l93 178h110l93 -178h-21l-126 128zM635 23v-21h-125c-16 0 -34 7 -34 26v655c0 7 -2 16 -11 16c-12 0 -13 -24 -13 -31v-463c0 -124 -81 -218 -208 -218c-175 0 -202 187 -202 324v417h104v-415c0 -90 4 -293 136 -293c100 0 149 98 149 186v462
c0 38 26 60 63 60c52 0 86 -37 86 -88v-582c0 -40 26 -35 55 -35z" />
    <glyph glyph-name="Udieresis" unicode="&#xdc;" horiz-adv-x="650" 
d="M325 832c0 28 24 52 52 52s52 -24 52 -52s-24 -52 -52 -52c-29 0 -52 23 -52 52zM177 832c0 28 24 52 52 52s52 -24 52 -52s-24 -52 -52 -52c-29 0 -52 23 -52 52zM635 23v-21h-125c-16 0 -34 7 -34 26v655c0 7 -2 16 -11 16c-12 0 -13 -24 -13 -31v-463
c0 -124 -81 -218 -208 -218c-175 0 -202 187 -202 324v417h104v-415c0 -90 4 -293 136 -293c100 0 149 98 149 186v462c0 38 26 60 63 60c52 0 86 -37 86 -88v-582c0 -40 26 -35 55 -35z" />
    <glyph glyph-name="Ydieresis" unicode="&#x178;" horiz-adv-x="552" 
d="M325 832c0 28 24 52 52 52s52 -24 52 -52s-24 -52 -52 -52c-29 0 -52 23 -52 52zM177 832c0 28 24 52 52 52s52 -24 52 -52s-24 -52 -52 -52c-29 0 -52 23 -52 52zM236 60v121h21v-121c0 -21 17 -31 37 -31c98 0 111 178 111 245v416c0 6 -2 15 -10 15
c-12 0 -13 -24 -13 -31v-341c0 -67 -112 -83 -160 -83c-60 0 -163 20 -163 98v328c0 7 -4 12 -11 12c-12 0 -27 -6 -39 -9l-5 20c31 8 109 35 137 35c11 0 22 -5 22 -17v-381c0 -47 62 -57 97 -57c33 0 101 10 101 55v340c0 38 26 60 63 60c52 0 85 -37 85 -88v-372
c0 -117 -44 -274 -187 -274c-37 0 -86 15 -86 60z" />
    <glyph glyph-name="Yacute" unicode="&#xdd;" horiz-adv-x="552" 
d="M198 758l52 178h104l-135 -178h-21zM236 60v121h21v-121c0 -21 17 -31 37 -31c98 0 111 178 111 245v416c0 6 -2 15 -10 15c-12 0 -13 -24 -13 -31v-341c0 -67 -112 -83 -160 -83c-60 0 -163 20 -163 98v328c0 7 -4 12 -11 12c-12 0 -27 -6 -39 -9l-5 20
c31 8 109 35 137 35c11 0 22 -5 22 -17v-381c0 -47 62 -57 97 -57c33 0 101 10 101 55v340c0 38 26 60 63 60c52 0 85 -37 85 -88v-372c0 -117 -44 -274 -187 -274c-37 0 -86 15 -86 60z" />
    <glyph glyph-name="Zcaron" unicode="&#x17d;" horiz-adv-x="579" 
d="M344 758h-109l-94 178h21l128 -128l127 128h21zM151 28h67c113 0 248 -1 283 130l73 -40c-64 -122 -245 -118 -363 -118h-215c107 103 431 560 433 699h-160c-92 0 -149 -42 -173 -130l-73 40c51 96 151 119 252 119h271c-2 -109 -212 -449 -277 -544
c-37 -54 -75 -107 -118 -156z" />
    <glyph glyph-name="agrave" unicode="&#xe0;" horiz-adv-x="537" 
d="M326 550l-135 178h104l52 -178h-21zM442 291l25 -11v203h21l-1 -212l23 -10l-8 -17l-14 7v-191c0 -38 -26 -60 -63 -60c-35 0 -68 17 -86 47c-33 -42 -78 -57 -130 -57c-105 0 -191 66 -191 176c0 128 106 201 226 201c-24 13 -123 59 -123 93c0 26 101 30 116 30
c82 0 206 -23 206 -127c0 -24 -1 -48 -1 -72zM329 344v59c0 33 -21 65 -57 65c-23 0 -47 -17 -47 -42c0 -34 79 -69 104 -82zM335 57c-13 30 -6 213 -6 257c-17 19 -44 24 -68 24c-92 0 -139 -77 -139 -162c0 -80 43 -158 131 -158c34 0 61 12 82 39zM443 271v-226
c0 -6 2 -16 11 -16c11 0 13 23 13 31l-1 200c-7 4 -14 8 -23 11z" />
    <glyph glyph-name="aacute" unicode="&#xe1;" horiz-adv-x="537" 
d="M191 550l52 178h104l-136 -178h-20zM442 291l25 -11v203h21l-1 -212l23 -10l-8 -17l-14 7v-191c0 -38 -26 -60 -63 -60c-35 0 -68 17 -86 47c-33 -42 -78 -57 -130 -57c-105 0 -191 66 -191 176c0 128 106 201 226 201c-24 13 -123 59 -123 93c0 26 101 30 116 30
c82 0 206 -23 206 -127c0 -24 -1 -48 -1 -72zM329 344v59c0 33 -21 65 -57 65c-23 0 -47 -17 -47 -42c0 -34 79 -69 104 -82zM335 57c-13 30 -6 213 -6 257c-17 19 -44 24 -68 24c-92 0 -139 -77 -139 -162c0 -80 43 -158 131 -158c34 0 61 12 82 39zM443 271v-226
c0 -6 2 -16 11 -16c11 0 13 23 13 31l-1 200c-7 4 -14 8 -23 11z" />
    <glyph glyph-name="acircumflex" unicode="&#xe2;" horiz-adv-x="537" 
d="M141 550h-21l94 178h109l94 -178h-21l-127 128zM442 291l25 -11v203h21l-1 -212l23 -10l-8 -17l-14 7v-191c0 -38 -26 -60 -63 -60c-35 0 -68 17 -86 47c-33 -42 -78 -57 -130 -57c-105 0 -191 66 -191 176c0 128 106 201 226 201c-24 13 -123 59 -123 93
c0 26 101 30 116 30c82 0 206 -23 206 -127c0 -24 -1 -48 -1 -72zM329 344v59c0 33 -21 65 -57 65c-23 0 -47 -17 -47 -42c0 -34 79 -69 104 -82zM335 57c-13 30 -6 213 -6 257c-17 19 -44 24 -68 24c-92 0 -139 -77 -139 -162c0 -80 43 -158 131 -158c34 0 61 12 82 39z
M443 271v-226c0 -6 2 -16 11 -16c11 0 13 23 13 31l-1 200c-7 4 -14 8 -23 11z" />
    <glyph glyph-name="atilde" unicode="&#xe3;" horiz-adv-x="537" 
d="M118 545h-21c0 51 18 137 84 137c63 0 122 -54 186 -54c42 0 51 34 52 70h21c-4 -58 -32 -135 -102 -135c-58 0 -126 56 -175 56c-40 0 -45 -44 -45 -74zM442 291l25 -11v203h21l-1 -212l23 -10l-8 -17l-14 7v-191c0 -38 -26 -60 -63 -60c-35 0 -68 17 -86 47
c-33 -42 -78 -57 -130 -57c-105 0 -191 66 -191 176c0 128 106 201 226 201c-24 13 -123 59 -123 93c0 26 101 30 116 30c82 0 206 -23 206 -127c0 -24 -1 -48 -1 -72zM329 344v59c0 33 -21 65 -57 65c-23 0 -47 -17 -47 -42c0 -34 79 -69 104 -82zM335 57
c-13 30 -6 213 -6 257c-17 19 -44 24 -68 24c-92 0 -139 -77 -139 -162c0 -80 43 -158 131 -158c34 0 61 12 82 39zM443 271v-226c0 -6 2 -16 11 -16c11 0 13 23 13 31l-1 200c-7 4 -14 8 -23 11z" />
    <glyph glyph-name="adieresis" unicode="&#xe4;" horiz-adv-x="537" 
d="M291 624c0 28 23 52 52 52c28 0 52 -24 52 -52s-24 -52 -52 -52c-30 0 -52 23 -52 52zM143 624c0 28 24 52 52 52s52 -24 52 -52s-24 -52 -52 -52c-30 0 -52 23 -52 52zM442 291l25 -11v203h21l-1 -212l23 -10l-8 -17l-14 7v-191c0 -38 -26 -60 -63 -60
c-35 0 -68 17 -86 47c-33 -42 -78 -57 -130 -57c-105 0 -191 66 -191 176c0 128 106 201 226 201c-24 13 -123 59 -123 93c0 26 101 30 116 30c82 0 206 -23 206 -127c0 -24 -1 -48 -1 -72zM329 344v59c0 33 -21 65 -57 65c-23 0 -47 -17 -47 -42c0 -34 79 -69 104 -82z
M335 57c-13 30 -6 213 -6 257c-17 19 -44 24 -68 24c-92 0 -139 -77 -139 -162c0 -80 43 -158 131 -158c34 0 61 12 82 39zM443 271v-226c0 -6 2 -16 11 -16c11 0 13 23 13 31l-1 200c-7 4 -14 8 -23 11z" />
    <glyph glyph-name="aring" unicode="&#xe5;" horiz-adv-x="537" 
d="M269 530c-59 0 -99 40 -99 99s40 99 99 99c58 0 98 -41 98 -99s-40 -99 -98 -99zM269 697c-40 0 -67 -27 -67 -68c0 -40 27 -67 67 -67c41 0 67 28 67 67c0 40 -26 68 -67 68zM442 291l25 -11v203h21l-1 -212l23 -10l-8 -17l-14 7v-191c0 -38 -26 -60 -63 -60
c-35 0 -68 17 -86 47c-33 -42 -78 -57 -130 -57c-105 0 -191 66 -191 176c0 128 106 201 226 201c-24 13 -123 59 -123 93c0 26 101 30 116 30c82 0 206 -23 206 -127c0 -24 -1 -48 -1 -72zM329 344v59c0 33 -21 65 -57 65c-23 0 -47 -17 -47 -42c0 -34 79 -69 104 -82z
M335 57c-13 30 -6 213 -6 257c-17 19 -44 24 -68 24c-92 0 -139 -77 -139 -162c0 -80 43 -158 131 -158c34 0 61 12 82 39zM443 271v-226c0 -6 2 -16 11 -16c11 0 13 23 13 31l-1 200c-7 4 -14 8 -23 11z" />
    <glyph glyph-name="ccedilla" unicode="&#xe7;" horiz-adv-x="444" 
d="M436 26l-42 -24c6 21 12 44 12 66c0 7 -1 32 -15 32c-29 0 -37 -110 -153 -110h-5c40 -42 74 -93 74 -142c0 -40 -27 -66 -67 -66c-41 0 -79 25 -103 56l13 15c13 -9 28 -15 44 -15c26 0 51 15 51 43c0 37 -24 81 -52 114c-111 25 -168 140 -168 253
c0 121 64 235 198 235c51 0 124 -22 124 -85h-20c0 38 -38 55 -71 55c-103 0 -127 -132 -127 -211c0 -81 26 -224 133 -224c97 0 95 104 133 104c36 0 41 -73 41 -96z" />
    <glyph glyph-name="dcroat" unicode="&#x111;" horiz-adv-x="574" 
d="M386 120v446h-84v42h84v63c0 7 -4 12 -12 12c-11 0 -27 -6 -38 -9l-5 20c31 8 109 35 137 35c10 0 22 -5 22 -18v-103h51v-42h-51v-521c0 -6 2 -16 10 -16c13 0 14 24 14 31v339h21v-339c0 -38 -26 -60 -64 -60c-53 0 -85 51 -85 99c-29 -16 -36 -109 -148 -109
c-140 0 -213 131 -213 258c0 121 64 235 198 235c51 0 124 -22 124 -85h-20c0 38 -38 55 -71 55c-103 0 -127 -132 -127 -211c0 -81 26 -224 133 -224c91 0 92 84 124 102z" />
    <glyph glyph-name="egrave" unicode="&#xe8;" horiz-adv-x="451" 
d="M283 550l-135 178h104l52 -178h-21zM435 26l-42 -24c6 21 12 44 12 66c0 7 -1 32 -15 32c-29 0 -37 -110 -153 -110c-140 0 -213 131 -213 258c0 151 111 235 256 235c27 0 139 -9 139 -50c0 -59 -240 -232 -285 -264c12 -67 48 -151 127 -151c97 0 95 104 133 104
c36 0 41 -73 41 -96zM132 183c57 40 194 146 194 224c0 38 -35 57 -69 57c-104 0 -129 -143 -129 -222c0 -19 2 -39 4 -59z" />
    <glyph glyph-name="eacute" unicode="&#xe9;" horiz-adv-x="451" 
d="M148 550l52 178h104l-136 -178h-20zM435 26l-42 -24c6 21 12 44 12 66c0 7 -1 32 -15 32c-29 0 -37 -110 -153 -110c-140 0 -213 131 -213 258c0 151 111 235 256 235c27 0 139 -9 139 -50c0 -59 -240 -232 -285 -264c12 -67 48 -151 127 -151c97 0 95 104 133 104
c36 0 41 -73 41 -96zM132 183c57 40 194 146 194 224c0 38 -35 57 -69 57c-104 0 -129 -143 -129 -222c0 -19 2 -39 4 -59z" />
    <glyph glyph-name="ecircumflex" unicode="&#xea;" horiz-adv-x="451" 
d="M98 550h-21l94 178h109l94 -178h-21l-127 128zM435 26l-42 -24c6 21 12 44 12 66c0 7 -1 32 -15 32c-29 0 -37 -110 -153 -110c-140 0 -213 131 -213 258c0 151 111 235 256 235c27 0 139 -9 139 -50c0 -59 -240 -232 -285 -264c12 -67 48 -151 127 -151
c97 0 95 104 133 104c36 0 41 -73 41 -96zM132 183c57 40 194 146 194 224c0 38 -35 57 -69 57c-104 0 -129 -143 -129 -222c0 -19 2 -39 4 -59z" />
    <glyph glyph-name="edieresis" unicode="&#xeb;" horiz-adv-x="451" 
d="M291 624c0 28 23 52 52 52c28 0 52 -24 52 -52s-24 -52 -52 -52c-30 0 -52 23 -52 52zM143 624c0 28 24 52 52 52s52 -24 52 -52s-24 -52 -52 -52c-30 0 -52 23 -52 52zM435 26l-42 -24c6 21 12 44 12 66c0 7 -1 32 -15 32c-29 0 -37 -110 -153 -110
c-140 0 -213 131 -213 258c0 151 111 235 256 235c27 0 139 -9 139 -50c0 -59 -240 -232 -285 -264c12 -67 48 -151 127 -151c97 0 95 104 133 104c36 0 41 -73 41 -96zM132 183c57 40 194 146 194 224c0 38 -35 57 -69 57c-104 0 -129 -143 -129 -222c0 -19 2 -39 4 -59z
" />
    <glyph glyph-name="igrave" unicode="&#xec;" horiz-adv-x="259" 
d="M187 550l-135 178h104l52 -178h-21zM17 430l-5 19c31 9 110 36 137 36c12 0 22 -6 22 -18v-422c0 -6 2 -16 11 -16c12 0 13 23 13 31v423h21v-423c0 -38 -26 -60 -64 -60c-52 0 -85 38 -85 88v338c0 8 -4 13 -11 13c-12 0 -27 -6 -39 -9z" />
    <glyph glyph-name="iacute" unicode="&#xed;" horiz-adv-x="259" 
d="M52 550l52 178h104l-136 -178h-20zM17 430l-5 19c31 9 110 36 137 36c12 0 22 -6 22 -18v-422c0 -6 2 -16 11 -16c12 0 13 23 13 31v423h21v-423c0 -38 -26 -60 -64 -60c-52 0 -85 38 -85 88v338c0 8 -4 13 -11 13c-12 0 -27 -6 -39 -9z" />
    <glyph glyph-name="icircumflex" unicode="&#xee;" horiz-adv-x="259" 
d="M2 550h-21l94 178h109l94 -178h-21l-127 128zM17 430l-5 19c31 9 110 36 137 36c12 0 22 -6 22 -18v-422c0 -6 2 -16 11 -16c12 0 13 23 13 31v423h21v-423c0 -38 -26 -60 -64 -60c-52 0 -85 38 -85 88v338c0 8 -4 13 -11 13c-12 0 -27 -6 -39 -9z" />
    <glyph glyph-name="idieresis" unicode="&#xef;" horiz-adv-x="259" 
d="M161 624c0 28 23 52 52 52c28 0 52 -24 52 -52s-24 -52 -52 -52c-30 0 -52 23 -52 52zM13 624c0 28 24 52 52 52s52 -24 52 -52s-24 -52 -52 -52c-30 0 -52 23 -52 52zM17 430l-5 19c31 9 110 36 137 36c12 0 22 -6 22 -18v-422c0 -6 2 -16 11 -16c12 0 13 23 13 31v423
h21v-423c0 -38 -26 -60 -64 -60c-52 0 -85 38 -85 88v338c0 8 -4 13 -11 13c-12 0 -27 -6 -39 -9z" />
    <glyph glyph-name="ntilde" unicode="&#xf1;" horiz-adv-x="559" 
d="M129 545h-21c0 51 18 137 84 137c63 0 122 -54 186 -54c42 0 51 34 52 70h21c-4 -58 -32 -135 -102 -135c-58 0 -126 56 -175 56c-40 0 -45 -44 -45 -74zM413 0v396c0 47 -61 57 -96 57c-34 0 -101 -10 -101 -55v-338c0 -38 -26 -60 -64 -60c-52 0 -85 38 -85 88v338
c0 8 -4 13 -11 13c-12 0 -27 -6 -39 -9l-5 19c31 9 109 36 137 36c12 0 22 -6 22 -18v-422c0 -6 2 -16 11 -16c12 0 13 23 13 31v339c0 67 111 84 159 84c60 0 163 -21 163 -99v-384h-104z" />
    <glyph glyph-name="ograve" unicode="&#xf2;" horiz-adv-x="518" 
d="M316 550l-135 178h104l52 -178h-21zM192 398h-20c0 63 73 85 124 85c135 0 198 -114 198 -235c0 -144 -85 -258 -236 -258c-153 0 -232 116 -232 260c0 157 94 282 259 282l-8 -29c-13 7 -25 10 -39 10c-95 0 -108 -172 -108 -236c0 -80 19 -259 131 -259
c104 0 129 146 129 224c0 79 -24 211 -127 211c-32 0 -71 -17 -71 -55z" />
    <glyph glyph-name="oacute" unicode="&#xf3;" horiz-adv-x="518" 
d="M181 550l52 178h104l-135 -178h-21zM192 398h-20c0 63 73 85 124 85c135 0 198 -114 198 -235c0 -144 -85 -258 -236 -258c-153 0 -232 116 -232 260c0 157 94 282 259 282l-8 -29c-13 7 -25 10 -39 10c-95 0 -108 -172 -108 -236c0 -80 19 -259 131 -259
c104 0 129 146 129 224c0 79 -24 211 -127 211c-32 0 -71 -17 -71 -55z" />
    <glyph glyph-name="ocircumflex" unicode="&#xf4;" horiz-adv-x="518" 
d="M132 550h-21l93 178h110l93 -178h-21l-126 128zM192 398h-20c0 63 73 85 124 85c135 0 198 -114 198 -235c0 -144 -85 -258 -236 -258c-153 0 -232 116 -232 260c0 157 94 282 259 282l-8 -29c-13 7 -25 10 -39 10c-95 0 -108 -172 -108 -236c0 -80 19 -259 131 -259
c104 0 129 146 129 224c0 79 -24 211 -127 211c-32 0 -71 -17 -71 -55z" />
    <glyph glyph-name="otilde" unicode="&#xf5;" horiz-adv-x="518" 
d="M108 545h-20c0 51 17 137 84 137c62 0 121 -54 186 -54c41 0 51 34 52 70h21c-5 -58 -33 -135 -102 -135c-58 0 -126 56 -176 56c-40 0 -45 -44 -45 -74zM192 398h-20c0 63 73 85 124 85c135 0 198 -114 198 -235c0 -144 -85 -258 -236 -258c-153 0 -232 116 -232 260
c0 157 94 282 259 282l-8 -29c-13 7 -25 10 -39 10c-95 0 -108 -172 -108 -236c0 -80 19 -259 131 -259c104 0 129 146 129 224c0 79 -24 211 -127 211c-32 0 -71 -17 -71 -55z" />
    <glyph glyph-name="odieresis" unicode="&#xf6;" horiz-adv-x="518" 
d="M291 624c0 28 23 52 52 52c28 0 52 -24 52 -52s-24 -52 -52 -52c-30 0 -52 23 -52 52zM143 624c0 28 24 52 52 52s52 -24 52 -52s-24 -52 -52 -52c-30 0 -52 23 -52 52zM192 398h-20c0 63 73 85 124 85c135 0 198 -114 198 -235c0 -144 -85 -258 -236 -258
c-153 0 -232 116 -232 260c0 157 94 282 259 282l-8 -29c-13 7 -25 10 -39 10c-95 0 -108 -172 -108 -236c0 -80 19 -259 131 -259c104 0 129 146 129 224c0 79 -24 211 -127 211c-32 0 -71 -17 -71 -55z" />
    <glyph glyph-name="scaron" unicode="&#x161;" horiz-adv-x="415" 
d="M262 550h-109l-94 178h21l128 -128l127 128h21zM77 2l-41 24c0 23 5 96 40 96c39 0 36 -104 123 -104c51 0 92 36 92 88c0 97 -149 117 -207 173c-19 -10 -39 -17 -58 -26l-8 16c4 2 9 4 13 6l27 12c4 2 9 4 13 6c-13 18 -21 40 -21 62c0 104 122 135 205 135
c23 0 117 -4 117 -40c0 -40 -198 -129 -227 -142c91 -37 249 -46 249 -177c0 -93 -77 -141 -164 -141c-112 0 -120 110 -150 110c-13 0 -14 -25 -14 -32c0 -22 5 -45 11 -66zM80 377c0 -29 20 -48 44 -60c16 8 144 65 144 88c0 34 -66 45 -91 45c-45 0 -97 -23 -97 -73z" />
    <glyph glyph-name="ugrave" unicode="&#xf9;" horiz-adv-x="585" 
d="M350 550l-135 178h104l52 -178h-21zM17 430l-5 19c31 9 109 36 137 36c12 0 22 -6 22 -18v-381c0 -46 62 -57 97 -57c33 0 101 11 101 55v340c0 39 26 61 63 61c52 0 85 -38 85 -89v-338c0 -7 5 -12 12 -12c11 0 27 6 38 9l6 -20c-32 -8 -110 -35 -138 -35
c-11 0 -22 5 -22 18v422c0 6 -2 16 -10 16c-12 0 -13 -23 -13 -32v-341c0 -66 -112 -83 -160 -83c-60 0 -163 21 -163 99v327c0 8 -4 13 -11 13c-12 0 -27 -6 -39 -9z" />
    <glyph glyph-name="uacute" unicode="&#xfa;" horiz-adv-x="585" 
d="M215 550l52 178h104l-136 -178h-20zM17 430l-5 19c31 9 109 36 137 36c12 0 22 -6 22 -18v-381c0 -46 62 -57 97 -57c33 0 101 11 101 55v340c0 39 26 61 63 61c52 0 85 -38 85 -89v-338c0 -7 5 -12 12 -12c11 0 27 6 38 9l6 -20c-32 -8 -110 -35 -138 -35
c-11 0 -22 5 -22 18v422c0 6 -2 16 -10 16c-12 0 -13 -23 -13 -32v-341c0 -66 -112 -83 -160 -83c-60 0 -163 21 -163 99v327c0 8 -4 13 -11 13c-12 0 -27 -6 -39 -9z" />
    <glyph glyph-name="ucircumflex" unicode="&#xfb;" horiz-adv-x="585" 
d="M165 550h-21l94 178h109l94 -178h-21l-127 128zM17 430l-5 19c31 9 109 36 137 36c12 0 22 -6 22 -18v-381c0 -46 62 -57 97 -57c33 0 101 11 101 55v340c0 39 26 61 63 61c52 0 85 -38 85 -89v-338c0 -7 5 -12 12 -12c11 0 27 6 38 9l6 -20c-32 -8 -110 -35 -138 -35
c-11 0 -22 5 -22 18v422c0 6 -2 16 -10 16c-12 0 -13 -23 -13 -32v-341c0 -66 -112 -83 -160 -83c-60 0 -163 21 -163 99v327c0 8 -4 13 -11 13c-12 0 -27 -6 -39 -9z" />
    <glyph glyph-name="udieresis" unicode="&#xfc;" horiz-adv-x="585" 
d="M291 624c0 28 23 52 52 52c28 0 52 -24 52 -52s-24 -52 -52 -52c-30 0 -52 23 -52 52zM143 624c0 28 24 52 52 52s52 -24 52 -52s-24 -52 -52 -52c-30 0 -52 23 -52 52zM17 430l-5 19c31 9 109 36 137 36c12 0 22 -6 22 -18v-381c0 -46 62 -57 97 -57c33 0 101 11 101 55
v340c0 39 26 61 63 61c52 0 85 -38 85 -89v-338c0 -7 5 -12 12 -12c11 0 27 6 38 9l6 -20c-32 -8 -110 -35 -138 -35c-11 0 -22 5 -22 18v422c0 6 -2 16 -10 16c-12 0 -13 -23 -13 -32v-341c0 -66 -112 -83 -160 -83c-60 0 -163 21 -163 99v327c0 8 -4 13 -11 13
c-12 0 -27 -6 -39 -9z" />
    <glyph glyph-name="yacute" unicode="&#xfd;" horiz-adv-x="560" 
d="M202 550l52 178h104l-135 -178h-21zM244 -48h21v-120c0 -22 17 -32 37 -32c98 0 111 178 111 245v395c0 6 -2 16 -10 16c-12 0 -13 -23 -13 -32v-341c0 -66 -112 -83 -160 -83c-60 0 -163 21 -163 99v327c0 8 -4 13 -11 13c-12 0 -27 -6 -39 -9l-5 19c31 9 109 36 137 36
c12 0 22 -6 22 -18v-381c0 -46 62 -57 97 -57c33 0 101 11 101 55v340c0 39 26 61 63 61c52 0 85 -38 85 -89v-351c0 -117 -44 -274 -187 -274c-37 0 -86 15 -86 61v120z" />
    <glyph glyph-name="ydieresis" unicode="&#xff;" horiz-adv-x="560" 
d="M291 624c0 28 23 52 52 52c28 0 52 -24 52 -52s-24 -52 -52 -52c-30 0 -52 23 -52 52zM143 624c0 28 24 52 52 52s52 -24 52 -52s-24 -52 -52 -52c-30 0 -52 23 -52 52zM244 -48h21v-120c0 -22 17 -32 37 -32c98 0 111 178 111 245v395c0 6 -2 16 -10 16
c-12 0 -13 -23 -13 -32v-341c0 -66 -112 -83 -160 -83c-60 0 -163 21 -163 99v327c0 8 -4 13 -11 13c-12 0 -27 -6 -39 -9l-5 19c31 9 109 36 137 36c12 0 22 -6 22 -18v-381c0 -46 62 -57 97 -57c33 0 101 11 101 55v340c0 39 26 61 63 61c52 0 85 -38 85 -89v-351
c0 -117 -44 -274 -187 -274c-37 0 -86 15 -86 61v120z" />
    <glyph glyph-name="zcaron" unicode="&#x17e;" horiz-adv-x="373" 
d="M241 550h-109l-94 178h21l128 -128l127 128h21zM355 26l-41 -24c6 21 11 44 11 66c0 9 -1 32 -15 32c-29 0 -37 -110 -167 -110c-50 0 -128 22 -128 84c0 17 6 32 15 46c19 30 204 310 204 321c0 14 -17 15 -27 15h-175l2 29h197c36 0 107 -15 107 -62
c0 -9 -4 -18 -9 -27l-201 -306c-5 -9 -9 -17 -9 -26c0 -35 41 -46 68 -46c91 0 89 104 128 104c35 0 40 -72 40 -96z" />
    </font>
</defs>
</svg>
